<svg width="555" height="278" viewBox="0 0 555 278" fill="none" xmlns="http://www.w3.org/2000/svg">
<path d="M3 174.815L114.933 277H519.733M87.3333 133.941L203.867 237.488H491.367M122.6 127.81H212.3L250.633 93.0668H509M114.933 12H545.033M160.167 146.884H347.233L373.3 117.591H555" stroke="url(#paint0_linear_59_6469)"/>
<g filter="url(#filter0_f_59_6469)">
<circle r="5" transform="matrix(-1 0 0 1 162 147)" fill="#E545E7"/>
</g>
<g filter="url(#filter1_f_59_6469)">
<circle r="5" transform="matrix(-1 0 0 1 87 133)" fill="#E545E7"/>
</g>
<g filter="url(#filter2_f_59_6469)">
<circle r="5" transform="matrix(-1 0 0 1 115 12)" fill="#E545E7"/>
</g>
<circle r="2" transform="matrix(-1 0 0 1 162 147)" fill="#E545E7"/>
<circle r="2" transform="matrix(-1 0 0 1 87 133)" fill="#E545E7"/>
<circle r="2.5" transform="matrix(-1 0 0 1 2.5 173.5)" fill="#E545E7"/>
<circle r="2.5" transform="matrix(-1 0 0 1 122.5 127.5)" fill="#E545E7"/>
<circle r="3" transform="matrix(-1 0 0 1 115 12)" fill="#E545E7"/>
<defs>
<filter id="filter0_f_59_6469" x="150" y="135" width="24" height="24" filterUnits="userSpaceOnUse" color-interpolation-filters="sRGB">
<feFlood flood-opacity="0" result="BackgroundImageFix"/>
<feBlend mode="normal" in="SourceGraphic" in2="BackgroundImageFix" result="shape"/>
<feGaussianBlur stdDeviation="3.5" result="effect1_foregroundBlur_59_6469"/>
</filter>
<filter id="filter1_f_59_6469" x="75" y="121" width="24" height="24" filterUnits="userSpaceOnUse" color-interpolation-filters="sRGB">
<feFlood flood-opacity="0" result="BackgroundImageFix"/>
<feBlend mode="normal" in="SourceGraphic" in2="BackgroundImageFix" result="shape"/>
<feGaussianBlur stdDeviation="3.5" result="effect1_foregroundBlur_59_6469"/>
</filter>
<filter id="filter2_f_59_6469" x="103" y="0" width="24" height="24" filterUnits="userSpaceOnUse" color-interpolation-filters="sRGB">
<feFlood flood-opacity="0" result="BackgroundImageFix"/>
<feBlend mode="normal" in="SourceGraphic" in2="BackgroundImageFix" result="shape"/>
<feGaussianBlur stdDeviation="3.5" result="effect1_foregroundBlur_59_6469"/>
</filter>
<linearGradient id="paint0_linear_59_6469" x1="279" y1="12" x2="516.356" y2="346.646" gradientUnits="userSpaceOnUse">
<stop stop-color="#E543E8"/>
<stop offset="1" stop-color="#EEF4FC"/>
</linearGradient>
</defs>
</svg>
