<?xml version="1.0" encoding="utf-8"?>
<!-- Generator: Adobe Illustrator 22.1.0, SVG Export Plug-In . SVG Version: 6.00 Build 0)  -->
<svg version="1.1" id="Слой_1" xmlns="http://www.w3.org/2000/svg" xmlns:xlink="http://www.w3.org/1999/xlink" x="0px" y="0px"
	 viewBox="0 0 974.1 946.9" style="enable-background:new 0 0 974.1 946.9;" xml:space="preserve">
<style type="text/css">
	.st0{fill:#62B766;}
</style>
<path class="st0" d="M375.4,229.9c0,0.1,5.2,0.2,0,0.3h203.5c5.3-0.1-10.6-0.2-10.6-0.3c0-0.1,0-0.1,0-0.2H375.4
	C375.4,229.7,375.4,229.8,375.4,229.9z"/>
<polygon class="st0" points="477.7,740.7 324.9,740.7 298.6,803.9 477.7,803.9 656.8,803.9 630.5,740.7 "/>
<g>
	<g>
		<path class="st0" d="M616.6,722.6h3l141.9-246.7L619.6,230.2h-0.4c0-0.1,0-0.2,0-0.3c0-0.1,0-0.1,0-0.2h-45.8c0,0.1,0,0.1,0,0.2
			c0,0.1,15.8,0.2,10.6,0.3H380.4c5.3-0.1,0-0.2,0-0.3c0-0.1,0-0.1,0-0.2h-45.8c0,0.1,0,0.1,0,0.2c0,0.7,0.1,1.3,0.2,2l-48.7,84.4
			l-22.4,38.8L194,475.9l141.8,246.7h0.3l0,0l137.6-72.7c0,0,0-234.7,0-301.4L368,561.2l53.6-17.1l0.7,66.4l-63,32.8l-93-167.5
			L372,292.8h211.4l105.7,183.1l-92.1,167.5l-59-32.8l-1-66.4l53.6,17.1L484.9,348.5c0,66.7,0,301.4,0,301.4"/>
		<polygon class="st0" points="336.2,722.6 336.2,722.6 336.2,722.6 		"/>
	</g>
</g>
<path class="st0" d="M477.7,171.8c22.3,0,40.5,16.9,42.9,38.6h53.5c0-53.3-43.2-96.4-96.4-96.4c-53.3,0-96.4,43.2-96.4,96.4h53.5
	C437.2,188.7,455.4,171.8,477.7,171.8z"/>
</svg>
