<svg width="20" height="18" viewBox="0 0 20 18" fill="none" xmlns="http://www.w3.org/2000/svg">
<path d="M8.75779 8.82752L16.6068 0.978516L18.0208 2.39252L16.6068 3.80752L19.0808 6.28152L17.6668 7.69652L15.1918 5.22152L13.7778 6.63552L15.8988 8.75652L14.4848 10.1715L12.3638 8.04952L10.1718 10.2415C10.8522 11.2755 11.1251 12.5251 10.9377 13.7486C10.7503 14.9722 10.1158 16.0828 9.15706 16.8657C8.19829 17.6485 6.98328 18.0481 5.74697 17.9872C4.51066 17.9262 3.34088 17.409 2.46379 16.5355C1.58482 15.6598 1.06282 14.4886 0.999248 13.2495C0.935675 12.0104 1.33507 10.792 2.11981 9.83093C2.90454 8.8699 4.01857 8.23496 5.24535 8.04951C6.47214 7.86407 7.72406 8.14137 8.75779 8.82752ZM8.12079 15.1205C8.41211 14.845 8.64523 14.5138 8.80638 14.1466C8.96752 13.7795 9.05342 13.3837 9.05899 12.9827C9.06457 12.5818 8.98971 12.1838 8.83884 11.8123C8.68797 11.4408 8.46415 11.1032 8.1806 10.8197C7.89706 10.5362 7.55956 10.3123 7.18804 10.1615C6.81651 10.0106 6.41852 9.93574 6.01757 9.94132C5.61662 9.94689 5.22086 10.0328 4.85368 10.1939C4.48649 10.3551 4.15534 10.5882 3.87979 10.8795C3.33332 11.4453 3.03094 12.2031 3.03777 12.9897C3.04461 13.7763 3.36011 14.5287 3.91634 15.085C4.47256 15.6412 5.225 15.9567 6.01159 15.9635C6.79818 15.9704 7.55599 15.668 8.12179 15.1215L8.12079 15.1205Z" fill="url(#paint0_linear_604_1719)"/>
<defs>
<linearGradient id="paint0_linear_604_1719" x1="10.0367" y1="0.978516" x2="10.0367" y2="17.9932" gradientUnits="userSpaceOnUse">
<stop stop-color="#FDC043"/>
<stop offset="1" stop-color="#E543E8"/>
</linearGradient>
</defs>
</svg>
