<svg width="173" height="36" viewBox="0 0 173 36" fill="none" xmlns="http://www.w3.org/2000/svg">
<path fill-rule="evenodd" clip-rule="evenodd" d="M64.6438 8.028C64.6438 8.988 64.5838 9.888 64.4637 10.728H64.6798C65.304 9.744 66.1442 9 67.2006 8.496C68.2809 7.992 69.4453 7.74 70.6937 7.74C73.0464 7.74 74.811 8.304 75.9874 9.432C77.1637 10.536 77.7519 12.324 77.7519 14.796V27.36H74.6189V15.012C74.6189 11.916 73.1785 10.368 70.2976 10.368C68.1369 10.368 66.6484 10.98 65.8322 12.204C65.0399 13.404 64.6438 15.132 64.6438 17.388V27.36H61.4748V0H64.6438V8.028ZM40.1552 7.776C39.7471 7.728 39.363 7.704 39.0028 7.704C37.6584 7.704 36.494 8.088 35.5097 8.856C34.5254 9.624 33.7212 10.536 33.097 11.592H32.9529L32.5928 8.064H30V27.36H33.169V17.064C33.169 15.768 33.4211 14.64 33.9252 13.68C34.4534 12.696 35.1496 11.94 36.0139 11.412C36.8782 10.86 37.8025 10.584 38.7868 10.584C39.1229 10.584 39.471 10.608 39.8311 10.656C40.2152 10.704 40.5633 10.764 40.8754 10.836L41.2716 7.92C40.9595 7.848 40.5873 7.8 40.1552 7.776ZM47.3414 26.676C48.6859 27.372 50.2104 27.72 51.9149 27.72C53.0192 27.72 53.9555 27.624 54.7238 27.432C55.516 27.264 56.2362 27.012 56.8845 26.676V23.868C56.2122 24.18 55.468 24.444 54.6517 24.66C53.8595 24.876 52.9352 24.984 51.8789 24.984C50.0543 24.984 48.6739 24.372 47.7376 23.148C46.8253 21.9 46.3691 20.112 46.3691 17.784C46.3691 12.912 48.2657 10.476 52.0589 10.476C52.7311 10.476 53.4514 10.572 54.2196 10.764C54.9879 10.956 55.6601 11.16 56.2362 11.376L57.2086 8.748C56.6324 8.46 55.8881 8.22 54.9759 8.028C54.0636 7.812 53.1153 7.704 52.131 7.704C50.4024 7.704 48.8539 8.052 47.4855 8.748C46.1411 9.444 45.0727 10.536 44.2805 12.024C43.4882 13.512 43.0921 15.444 43.0921 17.82C43.0921 20.1 43.4642 21.972 44.2085 23.436C44.9767 24.9 46.021 25.98 47.3414 26.676ZM95.4394 8.784C94.263 8.064 92.8466 7.704 91.1901 7.704C89.4855 7.704 87.985 8.112 86.6886 8.928C85.4162 9.744 84.4199 10.908 83.6997 12.42C83.0035 13.932 82.6554 15.744 82.6554 17.856C82.6554 19.992 83.0395 21.804 83.8077 23.292C84.6 24.756 85.6923 25.86 87.0848 26.604C88.5012 27.348 90.1217 27.72 91.9463 27.72C93.2667 27.72 94.4071 27.612 95.3674 27.396C96.3277 27.204 97.3 26.892 98.2843 26.46V23.688C97.276 24.12 96.2917 24.456 95.3314 24.696C94.3951 24.912 93.3147 25.02 92.0903 25.02C90.1697 25.02 88.6693 24.456 87.5889 23.328C86.5326 22.176 85.9804 20.508 85.9324 18.324H99.1486V16.416C99.1486 14.664 98.8245 13.14 98.1763 11.844C97.5521 10.524 96.6398 9.504 95.4394 8.784ZM87.5529 11.772C88.4412 10.788 89.6416 10.296 91.154 10.296C92.7626 10.296 93.9389 10.812 94.6832 11.844C95.4274 12.852 95.8115 14.172 95.8355 15.804H86.0044C86.1725 14.076 86.6886 12.732 87.5529 11.772ZM110.508 25.128C110.989 25.128 111.481 25.092 111.985 25.02C112.489 24.924 112.897 24.828 113.209 24.732V27.144C112.873 27.312 112.393 27.444 111.769 27.54C111.145 27.66 110.544 27.72 109.968 27.72C108.96 27.72 108.024 27.552 107.159 27.216C106.319 26.856 105.635 26.244 105.107 25.38C104.579 24.516 104.315 23.304 104.315 21.744V10.512H101.578V9L104.351 7.74L105.611 3.636H107.484V8.064H113.065V10.512H107.484V21.672C107.484 22.848 107.76 23.724 108.312 24.3C108.888 24.852 109.62 25.128 110.508 25.128ZM117.434 8.064H114.049L121.828 27.432L120.82 29.988C120.435 31.02 119.895 31.848 119.199 32.472C118.527 33.096 117.639 33.408 116.534 33.408C116.126 33.408 115.73 33.384 115.346 33.336C114.986 33.288 114.674 33.24 114.41 33.192V35.712C114.722 35.784 115.094 35.844 115.526 35.892C115.958 35.964 116.462 36 117.038 36C118.911 36 120.375 35.46 121.432 34.38C122.512 33.3 123.388 31.848 124.061 30.024L132.379 8.064H128.958L125.033 19.008C124.697 19.992 124.373 20.976 124.061 21.96C123.748 22.92 123.52 23.7 123.376 24.3H123.232C123.088 23.508 122.872 22.68 122.584 21.816C122.296 20.928 121.972 20.004 121.612 19.044L117.434 8.064ZM144.615 7.704C146.991 7.704 148.9 8.532 150.34 10.188C151.805 11.844 152.537 14.34 152.537 17.676C152.537 20.964 151.805 23.46 150.34 25.164C148.9 26.868 146.979 27.72 144.579 27.72C143.09 27.72 141.854 27.444 140.869 26.892C139.909 26.316 139.153 25.656 138.601 24.912H138.385C138.433 25.32 138.481 25.836 138.529 26.46C138.577 27.084 138.601 27.624 138.601 28.08V36H135.432V8.064H138.025L138.457 10.692H138.601C139.177 9.852 139.933 9.144 140.869 8.568C141.806 7.992 143.054 7.704 144.615 7.704ZM144.038 10.368C142.07 10.368 140.677 10.92 139.861 12.024C139.069 13.128 138.649 14.808 138.601 17.064V17.676C138.601 20.052 138.985 21.888 139.753 23.184C140.545 24.456 141.998 25.092 144.11 25.092C145.287 25.092 146.247 24.768 146.991 24.12C147.76 23.472 148.324 22.596 148.684 21.492C149.068 20.364 149.26 19.08 149.26 17.64C149.26 15.432 148.828 13.668 147.964 12.348C147.123 11.028 145.815 10.368 144.038 10.368ZM169.291 8.784C168.114 8.064 166.698 7.704 165.041 7.704C163.337 7.704 161.836 8.112 160.54 8.928C159.268 9.744 158.271 10.908 157.551 12.42C156.855 13.932 156.507 15.744 156.507 17.856C156.507 19.992 156.891 21.804 157.659 23.292C158.451 24.756 159.544 25.86 160.936 26.604C162.353 27.348 163.973 27.72 165.798 27.72C167.118 27.72 168.259 27.612 169.219 27.396C170.179 27.204 171.151 26.892 172.136 26.46V23.688C171.127 24.12 170.143 24.456 169.183 24.696C168.246 24.912 167.166 25.02 165.942 25.02C164.021 25.02 162.521 24.456 161.44 23.328C160.384 22.176 159.832 20.508 159.784 18.324H173V16.416C173 14.664 172.676 13.14 172.028 11.844C171.404 10.524 170.491 9.504 169.291 8.784ZM161.404 11.772C162.293 10.788 163.493 10.296 165.005 10.296C166.614 10.296 167.79 10.812 168.535 11.844C169.279 12.852 169.663 14.172 169.687 15.804H159.856C160.024 14.076 160.54 12.732 161.404 11.772ZM25 27V2H0V10.8929C0 11.131 0.0472144 11.3452 0.141643 11.5357C0.259679 11.7262 0.401322 11.881 0.566572 12C0.731822 12.119 0.92068 12.2024 1.13314 12.25C1.34561 12.2738 1.55807 12.2381 1.77054 12.1429L21.8839 3.75L2.44334 13.9286C1.68791 14.3333 1.08593 14.9048 0.637394 15.6429C0.212465 16.3571 0 17.131 0 17.9643V24.4643C0 25.1786 0.247875 25.7857 0.743626 26.2857C1.23938 26.7619 1.82956 27 2.51416 27H25ZM7.86119 21.5714L24.1147 3.25L9.31303 23.1071C9.12417 23.3452 8.92351 23.5595 8.71105 23.75C8.49858 23.9405 8.27431 24.0357 8.03824 24.0357C7.84939 24.0357 7.63692 23.9405 7.40085 23.75C7.04674 23.4167 6.94051 23.0833 7.08215 22.75C7.2238 22.3929 7.48348 22 7.86119 21.5714Z" fill="#FCBE45"/>
</svg>
