<svg width="197" height="197" viewBox="0 0 197 197" fill="none" xmlns="http://www.w3.org/2000/svg">
<path d="M26.5356 63.7738C27.68 64.5104 29.2037 64.1795 29.9392 63.0351C30.3922 62.3293 31.1738 61.9028 32.0126 61.9028C33.3724 61.9028 34.4751 60.8002 34.4751 59.4403C34.4751 58.0804 33.3724 56.9778 32.0126 56.9778C29.4973 56.9723 27.1534 58.2519 25.7992 60.3715C25.0637 61.5148 25.3936 63.0374 26.5358 63.774L26.5356 63.7738Z" fill="#EFF2FF"/>
<path d="M41.8625 61.9024H46.7875C48.1473 61.9024 49.25 60.7998 49.25 59.4399C49.25 58.0801 48.1473 56.9774 46.7875 56.9774H41.8625C40.5026 56.9774 39.4 58.0801 39.4 59.4399C39.4 60.7998 40.5026 61.9024 41.8625 61.9024Z" fill="#EFF2FF"/>
<path d="M27.0875 78.7881C27.7405 78.7881 28.3671 78.5287 28.8288 78.0669C29.2905 77.6052 29.55 76.9786 29.55 76.3256V71.4006C29.55 70.0407 28.4474 68.9381 27.0875 68.9381C25.7276 68.9381 24.625 70.0407 24.625 71.4006V76.3256C24.625 76.9786 24.8844 77.6052 25.3462 78.0669C25.8079 78.5287 26.4345 78.7881 27.0875 78.7881Z" fill="#EFF2FF"/>
<path d="M56.6376 61.9024H59.2254C60.0235 74.5655 66.8758 86.0689 77.6325 92.8004L76.2342 95.352C75.5801 96.5447 76.0165 98.042 77.2093 98.6962C78.402 99.3503 79.8993 98.9138 80.5535 97.7211L81.9617 95.153C82.8478 95.5653 83.7514 95.9435 84.6705 96.2887C85.0739 96.4393 85.4752 96.5943 85.8819 96.7317C86.458 96.9263 87.0373 97.111 87.6255 97.2813C88.2554 97.4638 88.8941 97.621 89.5317 97.7738C90.1198 97.9091 90.7091 98.0421 91.3049 98.1531C92.1767 98.3169 93.0518 98.451 93.9301 98.5544C94.2896 98.5962 94.6491 98.6335 95.0107 98.6654C96.1705 98.7709 97.3325 98.8424 98.5022 98.8424C99.6718 98.8424 100.834 98.7709 101.994 98.6654C102.355 98.6335 102.715 98.5962 103.074 98.5544C103.953 98.451 104.828 98.3169 105.699 98.1531C106.295 98.0421 106.883 97.9069 107.473 97.7738C108.11 97.621 108.748 97.4638 109.379 97.2813C109.967 97.1109 110.546 96.9263 111.122 96.7317C111.529 96.5943 111.93 96.4382 112.332 96.2887C113.253 95.9413 114.154 95.5675 115.04 95.153L116.449 97.7211C117.103 98.9138 118.6 99.3503 119.793 98.6962C120.986 98.0421 121.422 96.5448 120.768 95.352L119.37 92.8004C130.126 86.0692 136.977 74.5669 137.774 61.9024H140.362C141.722 61.9024 142.825 60.7997 142.825 59.4399C142.825 58.08 141.722 56.9774 140.362 56.9774H137.774C136.962 43.5073 129.303 31.3938 117.483 24.8832C105.663 18.3727 91.3309 18.3718 79.5097 24.8832C67.6908 31.3947 60.0318 43.5082 59.2193 56.9774H56.6358C55.276 56.9774 54.1733 58.08 54.1733 59.4399C54.1733 60.7997 55.276 61.9024 56.6358 61.9024H56.6376ZM82.5214 89.9507C83.579 87.3145 85.2708 84.9818 87.4464 83.1556C87.4706 83.1732 87.5003 83.183 87.5256 83.1995L87.5245 83.2006C90.7753 85.3696 94.5954 86.5271 98.5024 86.5271C102.411 86.5271 106.231 85.3695 109.48 83.2006C109.505 83.183 109.534 83.1732 109.56 83.1567V83.1556C111.735 84.9816 113.427 87.3142 114.485 89.9507C113.261 90.5927 111.998 91.1588 110.704 91.6447L110.644 91.6667H110.646C102.813 94.5744 94.1975 94.5744 86.3648 91.6667L86.3054 91.6447H86.3065C85.0104 91.1588 83.7462 90.5927 82.5216 89.9507H82.5214ZM114.779 58.9626V58.9615C114.586 58.3458 114.474 57.7082 114.443 57.0629C114.424 56.7793 114.414 56.4748 114.414 56.1395V53.5297C114.435 52.028 113.473 50.6878 112.043 50.2274C111.947 50.1955 111.853 50.1779 111.757 50.1559C111.538 50.0999 111.315 50.0669 111.089 50.0548C111.032 50.0548 110.978 50.0273 110.922 50.0273C110.865 50.0273 110.837 50.0493 110.792 50.0515V50.0526C110.424 50.0592 110.059 50.1252 109.713 50.2472C106.126 51.6345 102.34 52.4437 98.4987 52.6437C94.6597 52.4403 90.8782 51.6279 87.2945 50.2373C86.2204 49.8382 85.0178 49.9932 84.0789 50.6506C83.14 51.3069 82.5838 52.3843 82.5915 53.5297V56.1395C82.62 57.0937 82.4969 58.0468 82.2265 58.9613C81.4932 56.3636 81.1843 53.6649 81.3107 50.9682V42.3495C81.9934 42.4781 82.697 42.4275 83.3544 42.2021C84.4075 41.8339 85.2705 41.0599 85.7509 40.0519C86.6788 38.0918 89.5699 34.8148 98.4988 34.8148C114.372 34.8148 115.687 42.4485 115.687 50.9682C115.813 53.6648 115.504 56.3638 114.771 58.9613L114.779 58.9626ZM84.4126 63.9832C84.4665 63.9492 84.5237 63.8997 84.5775 63.8601C84.6809 63.7843 84.7864 63.7095 84.893 63.6139C84.9986 63.5182 85.048 63.4732 85.125 63.3995C85.2009 63.3258 85.324 63.2104 85.4229 63.1038C85.5219 62.9982 85.5757 62.9268 85.6516 62.8333C85.7274 62.7399 85.8385 62.5871 85.9297 62.464C86.021 62.3408 86.0748 62.2474 86.1463 62.132C86.2177 62.0165 86.3167 61.8362 86.3925 61.679C86.4684 61.5218 86.5233 61.4328 86.5849 61.2855C86.6465 61.1382 86.7322 60.9205 86.8037 60.7292C86.8575 60.5819 86.9125 60.4357 86.9609 60.2763C87.0268 60.0597 87.0818 59.8233 87.1379 59.587C87.1752 59.4221 87.2192 59.2671 87.2511 59.0945C87.305 58.8142 87.3423 58.503 87.3786 58.1931C87.3984 58.0326 87.4259 57.8875 87.4402 57.7181C87.4842 57.2256 87.5094 56.7013 87.5094 56.1373V55.5261L87.5105 55.5239C91.0504 56.7518 94.754 57.4411 98.4984 57.5686C102.241 57.4422 105.943 56.754 109.481 55.5294V56.1406C109.481 56.7046 109.505 57.2289 109.55 57.7214C109.564 57.8918 109.592 58.0369 109.611 58.1963C109.649 58.5064 109.685 58.8164 109.739 59.0978C109.771 59.2726 109.815 59.4276 109.852 59.5903C109.909 59.8365 109.963 60.063 110.029 60.2796C110.079 60.4401 110.135 60.5852 110.19 60.7347C110.259 60.9271 110.327 61.114 110.406 61.2865C110.485 61.4591 110.532 61.5548 110.599 61.6856C110.665 61.8164 110.761 61.9934 110.845 62.1363C110.928 62.2793 110.988 62.3628 111.061 62.4683C111.135 62.5739 111.244 62.7146 111.34 62.8377C111.435 62.9608 111.49 63.0224 111.568 63.1082C111.647 63.1939 111.765 63.3104 111.866 63.4039C111.967 63.4973 112.021 63.5512 112.098 63.6183C112.174 63.6842 112.31 63.781 112.414 63.8645C112.467 63.9041 112.525 63.9536 112.578 63.9876V68.551C112.543 72.2954 110.847 75.8307 107.947 78.1987C107.307 78.7351 106.622 79.2144 105.9 79.6322L105.831 79.6696H105.832C105.123 80.0741 104.382 80.4182 103.616 80.6985L103.48 80.7425C102.719 81.0129 101.936 81.2207 101.141 81.3636L100.966 81.3878H100.965C99.3359 81.6725 97.6705 81.6725 96.0402 81.3878L95.8654 81.3636C95.0705 81.2207 94.2878 81.0129 93.526 80.7425L93.3908 80.6985C92.6245 80.4182 91.8836 80.0741 91.1745 79.6696L91.1053 79.6322H91.1064C90.3841 79.2144 89.6992 78.7351 89.0594 78.1987C86.1539 75.8329 84.451 72.2974 84.4125 68.551L84.4126 63.9832ZM98.4984 24.966C108.274 24.9561 117.593 29.1005 124.132 36.3672C130.671 43.6348 133.813 53.3376 132.776 63.0579C131.737 72.7782 126.617 81.5993 118.691 87.3213C117.417 84.4884 115.563 81.9522 113.249 79.88C115.987 76.7404 117.499 72.7179 117.509 68.5525V63.8C119.122 62.3225 120.611 58.8432 120.611 50.9708C120.611 41.1571 118.099 29.8913 98.4984 29.8913C87.6755 29.8913 83.3463 34.2478 81.6422 37.2788C80.4022 36.9149 79.0621 37.1567 78.0276 37.9329C76.992 38.7079 76.3841 39.9259 76.3852 41.2188V50.9698C76.3852 58.8498 77.8748 62.3248 79.4874 63.799V68.5526C79.4973 72.718 81.01 76.7405 83.7474 79.8801C81.4333 81.9523 79.5797 84.4885 78.3057 87.3213C70.3795 81.5993 65.26 72.7782 64.221 63.058C63.1832 53.3377 66.3251 43.6349 72.8651 36.3673C79.4038 29.1008 88.723 24.9562 98.4982 24.966L98.4984 24.966Z" fill="#EFF2FF"/>
<path d="M27.0875 108.338C27.7405 108.338 28.3671 108.079 28.8288 107.617C29.2905 107.155 29.55 106.529 29.55 105.876V100.951C29.55 99.5907 28.4474 98.488 27.0875 98.488C25.7276 98.488 24.625 99.5907 24.625 100.951V105.876C24.625 106.529 24.8844 107.155 25.3462 107.617C25.8079 108.079 26.4345 108.338 27.0875 108.338Z" fill="#EFF2FF"/>
<path d="M27.0875 93.5631C27.7405 93.5631 28.3671 93.3037 28.8288 92.842C29.2905 92.3803 29.55 91.7536 29.55 91.1006V86.1756C29.55 84.8158 28.4474 83.7131 27.0875 83.7131C25.7276 83.7131 24.625 84.8158 24.625 86.1756V91.1006C24.625 91.7536 24.8844 92.3803 25.3462 92.842C25.8079 93.3037 26.4345 93.5631 27.0875 93.5631Z" fill="#EFF2FF"/>
<path d="M166.53 112.073C165.676 111.233 164.337 111.14 163.376 111.856C158.313 107.786 152.262 105.135 145.839 104.172C139.416 103.209 132.853 103.968 126.82 106.374L125.51 103.987V103.988C124.855 102.795 123.358 102.359 122.165 103.013C120.973 103.667 120.536 105.164 121.19 106.357L122.358 108.484C111.462 114.586 104.388 125.779 103.552 138.24H93.4553C92.6209 125.782 85.5488 114.589 74.6567 108.484L75.8242 106.357C76.4783 105.164 76.0418 103.667 74.8491 103.013C73.6563 102.359 72.159 102.795 71.5048 103.988L70.1945 106.375V106.374C64.1603 103.966 57.5941 103.204 51.1693 104.167C44.7437 105.131 38.6897 107.784 33.6262 111.856C32.7039 111.153 31.411 111.209 30.5535 111.99C29.695 112.771 29.5169 114.052 30.1292 115.037C22.2174 123.171 18.4961 134.5 20.0462 145.741C21.5951 156.983 28.2405 166.882 38.0587 172.573C38.0983 172.6 38.128 172.634 38.1676 172.656C38.2467 172.703 38.3303 172.742 38.4138 172.787C38.9063 173.065 39.3988 173.327 39.8913 173.583C40.2948 173.79 40.7059 173.984 41.1226 174.177C41.8877 174.532 42.666 174.859 43.4576 175.162C43.9776 175.36 44.4942 175.558 45.0208 175.733C45.5133 175.898 46.0058 176.043 46.4983 176.186C47.092 176.359 47.6922 176.508 48.2957 176.649H48.3496L48.4188 176.661C48.786 176.745 49.1576 176.841 49.527 176.907C50.4779 177.096 51.4376 177.235 52.4006 177.348L52.482 177.36H52.5293C52.803 177.39 53.0811 177.412 53.3592 177.436C54.4454 177.535 55.5359 177.601 56.632 177.601C57.728 177.601 58.8185 177.535 59.9047 177.436C60.1828 177.412 60.461 177.389 60.7347 177.36H60.782L60.8633 177.348C61.8263 177.235 62.786 177.102 63.737 176.907C64.1108 176.836 64.4757 176.74 64.8451 176.661L64.9144 176.649H64.9682C65.5718 176.508 66.172 176.359 66.7656 176.186C67.2581 176.043 67.7506 175.898 68.2431 175.733C68.7356 175.568 69.2853 175.362 69.802 175.162C70.5979 174.856 71.3751 174.526 72.1436 174.177C72.5547 173.987 72.9659 173.793 73.3748 173.585C73.8673 173.339 74.3598 173.068 74.8523 172.789C74.9337 172.745 75.0172 172.706 75.0986 172.658C75.1381 172.636 75.1678 172.599 75.2074 172.575L75.2063 172.576C85.7917 166.406 92.6262 155.388 93.4508 143.164H103.547C104.367 155.383 111.193 166.399 121.77 172.573C121.809 172.601 121.839 172.635 121.878 172.657C121.957 172.704 122.041 172.742 122.125 172.787C122.617 173.066 123.11 173.327 123.602 173.583C124.006 173.79 124.417 173.985 124.833 174.177C125.598 174.532 126.377 174.86 127.168 175.162C127.688 175.361 128.205 175.559 128.732 175.734C129.258 175.908 129.717 176.044 130.209 176.187C130.803 176.359 131.403 176.509 132.006 176.649H132.06L132.13 176.661C132.497 176.745 132.868 176.842 133.238 176.908C134.189 177.097 135.148 177.235 136.111 177.349L136.193 177.361H136.24C136.514 177.39 136.792 177.412 137.07 177.437C138.156 177.535 139.247 177.601 140.343 177.601C141.439 177.601 142.527 177.535 143.613 177.437C143.891 177.412 144.169 177.389 144.445 177.361H144.493L144.576 177.349C145.532 177.235 146.485 177.102 147.428 176.91C147.809 176.836 148.181 176.743 148.556 176.664L148.625 176.652H148.699C149.29 176.511 149.881 176.364 150.464 176.196C150.957 176.051 151.473 175.901 151.969 175.736C152.464 175.571 152.972 175.376 153.471 175.186C154.292 174.874 155.094 174.534 155.876 174.167C156.283 173.98 156.684 173.79 157.083 173.586C157.576 173.339 158.083 173.066 158.561 172.787C158.642 172.74 158.726 172.704 158.807 172.657C158.847 172.635 158.876 172.597 158.916 172.573H158.914C168.732 166.883 175.377 156.983 176.927 145.742C178.476 134.5 174.756 123.171 166.843 115.038C167.431 114.095 167.302 112.872 166.53 112.073L166.53 112.073ZM67.7821 170.68C67.1621 170.909 66.5234 171.069 65.8912 171.258L60.0451 155.181C61.4116 154.959 62.7506 154.598 64.0445 154.104L64.1819 154.055V154.056C64.9635 153.757 65.7276 153.411 66.4674 153.022H71.4121V169.08C70.3018 169.657 69.1563 170.167 67.9843 170.607L67.7821 170.68ZM61.0399 172.332C58.1201 172.728 55.1595 172.728 52.2388 172.332L56.6372 160.219L61.0399 172.332ZM64.5665 148.446C59.6438 151.214 53.6347 151.214 48.7131 148.446C44.5938 146.098 41.7269 142.044 40.8868 137.377C40.0458 132.712 41.3177 127.912 44.3585 124.274C47.4005 120.636 51.8977 118.534 56.6392 118.534C61.3807 118.534 65.8791 120.636 68.9199 124.274C71.9608 127.912 73.2325 132.711 72.3927 137.377C71.5518 142.044 68.6858 146.098 64.5665 148.446ZM41.862 169.072V153.014H46.8089C47.5499 153.404 48.3128 153.749 49.0944 154.048L49.2318 154.098C50.5258 154.59 51.8658 154.951 53.2312 155.173L47.3851 171.251C46.7519 171.062 46.1143 170.901 45.4943 170.672L45.2898 170.599C44.1179 170.159 42.9724 169.649 41.862 169.072L41.862 169.072ZM76.337 165.871V153.014C76.3359 151.89 75.95 150.801 75.2453 149.927C74.5396 149.053 73.5568 148.446 72.4585 148.207C75.9798 144.141 77.8012 138.876 77.544 133.504C77.2878 128.131 74.9726 123.065 71.0798 119.353C67.1871 115.642 62.0147 113.572 56.6369 113.572C51.2591 113.572 46.0867 115.642 42.194 119.353C38.3013 123.065 35.986 128.131 35.7299 133.504C35.4726 138.876 37.2942 144.141 40.8153 148.207C39.7171 148.446 38.7343 149.053 38.0285 149.927C37.3238 150.801 36.938 151.89 36.9369 153.014V165.883C29.8868 160.378 25.461 152.176 24.731 143.262C24.001 134.347 27.0341 125.534 33.0948 118.957C39.1565 112.379 47.6928 108.637 56.6369 108.637C65.5809 108.637 74.1172 112.379 80.1789 118.957C86.2395 125.534 89.2724 134.347 88.5427 143.262C87.8127 152.176 83.3869 160.378 76.3369 165.883L76.337 165.871ZM151.504 170.66C150.884 170.889 150.243 171.05 149.613 171.239L143.767 155.161C145.133 154.938 146.474 154.577 147.768 154.085L147.904 154.035V154.036C148.685 153.736 149.448 153.391 150.189 153.002H155.136V169.06C154.025 169.637 152.879 170.147 151.706 170.587L151.504 170.66ZM144.762 172.313C141.841 172.711 138.879 172.711 135.958 172.313L140.361 160.219L144.762 172.313ZM148.288 148.427C143.369 151.189 137.365 151.189 132.447 148.427C128.325 146.079 125.457 142.026 124.615 137.36C123.773 132.692 125.044 127.892 128.085 124.253C131.127 120.615 135.625 118.512 140.368 118.512C145.11 118.512 149.607 120.615 152.649 124.253C155.69 127.892 156.961 132.692 156.119 137.36C155.277 142.026 152.409 146.079 148.288 148.427H148.288ZM125.586 169.072V153.014H130.535C131.272 153.403 132.03 153.746 132.808 154.043L132.971 154.102C134.261 154.592 135.596 154.951 136.957 155.173L131.111 171.251C130.481 171.062 129.843 170.901 129.225 170.675L129.013 170.595L129.014 170.596C127.841 170.159 126.696 169.65 125.586 169.072L125.586 169.072ZM160.061 165.871V153.014C160.06 151.89 159.674 150.801 158.969 149.927C158.263 149.053 157.281 148.446 156.182 148.207C159.704 144.141 161.525 138.876 161.268 133.504C161.012 128.131 158.697 123.065 154.804 119.353C150.911 115.642 145.739 113.572 140.361 113.572C134.983 113.572 129.811 115.642 125.918 119.353C122.025 123.065 119.71 128.131 119.454 133.504C119.197 138.876 121.018 144.141 124.539 148.207C123.441 148.446 122.458 149.053 121.752 149.927C121.048 150.801 120.662 151.89 120.661 153.014V165.883C113.611 160.378 109.185 152.176 108.455 143.262C107.725 134.347 110.758 125.534 116.819 118.957C122.88 112.379 131.417 108.637 140.361 108.637C149.305 108.637 157.841 112.379 163.903 118.957C169.963 125.534 172.996 134.347 172.267 143.262C171.537 152.176 167.111 160.378 160.061 165.883L160.061 165.871Z" fill="#EFF2FF"/>
<path d="M172.375 86.1756C172.375 84.8158 171.272 83.7131 169.913 83.7131C168.553 83.7131 167.45 84.8158 167.45 86.1756V91.1006C167.45 92.4605 168.553 93.5631 169.913 93.5631C171.272 93.5631 172.375 92.4605 172.375 91.1006V86.1756Z" fill="#EFF2FF"/>
<path d="M167.45 71.4006V76.3256C167.45 77.6855 168.553 78.7881 169.913 78.7881C171.272 78.7881 172.375 77.6855 172.375 76.3256V71.4006C172.375 70.0407 171.272 68.9381 169.913 68.9381C168.553 68.9381 167.45 70.0407 167.45 71.4006Z" fill="#EFF2FF"/>
<path d="M164.988 61.9023C165.826 61.9023 166.608 62.3289 167.061 63.0346C167.405 63.6052 167.965 64.0119 168.613 64.1625C169.262 64.3131 169.943 64.1955 170.503 63.8349C171.062 63.4744 171.453 62.9027 171.585 62.2497C171.715 61.5978 171.577 60.9195 171.201 60.3709C169.847 58.2514 167.503 56.9718 164.988 56.9772C163.628 56.9772 162.525 58.0798 162.525 59.4397C162.525 60.7995 163.628 61.9022 164.988 61.9022L164.988 61.9023Z" fill="#EFF2FF"/>
<path d="M150.213 61.9024H155.138C156.497 61.9024 157.6 60.7998 157.6 59.4399C157.6 58.0801 156.497 56.9774 155.138 56.9774H150.213C148.853 56.9774 147.75 58.0801 147.75 59.4399C147.75 60.7998 148.853 61.9024 150.213 61.9024Z" fill="#EFF2FF"/>
<path d="M169.913 98.488C168.553 98.488 167.45 99.5907 167.45 100.951V105.876C167.45 107.235 168.553 108.338 169.913 108.338C171.272 108.338 172.375 107.235 172.375 105.876V100.951C172.375 100.298 172.116 99.6709 171.654 99.2092C171.192 98.7475 170.566 98.488 169.913 98.488Z" fill="#EFF2FF"/>
</svg>
