<svg width="197" height="197" viewBox="0 0 197 197" fill="none" xmlns="http://www.w3.org/2000/svg">
<path d="M116.661 133.675C118.355 125.554 122.021 117.975 127.334 111.604C132.188 105.632 134.833 98.1662 134.821 90.4697C134.81 81.066 130.881 72.0933 123.981 65.7062C116.467 58.7234 106.416 55.1318 96.1788 55.7749C77.9574 56.8511 63.3726 70.8105 62.2469 88.2461H62.248C61.694 96.9451 64.5281 105.522 70.1567 112.179C75.4127 118.286 78.9612 125.675 80.4432 133.595C78.8151 134.845 77.784 136.718 77.5983 138.761C77.4114 140.805 78.0886 142.835 79.4638 144.357C78.1831 145.779 77.5048 147.642 77.5719 149.554C77.6389 151.465 78.447 153.277 79.8244 154.605C81.2019 155.932 83.0423 156.673 84.9548 156.67H112.042C113.955 156.673 115.795 155.932 117.173 154.605C118.55 153.277 119.358 151.465 119.425 149.554C119.492 147.642 118.814 145.779 117.533 144.357C118.893 142.851 119.57 140.85 119.406 138.828C119.24 136.805 118.247 134.94 116.659 133.675L116.661 133.675ZM73.9313 109.013C69.1183 103.326 66.6932 95.9984 67.1649 88.5625C68.1279 73.6028 80.7264 61.6213 96.4701 60.6912C105.353 60.1294 114.077 63.2383 120.603 69.2902C126.511 74.7505 129.88 82.4251 129.896 90.4711C129.903 97.0461 127.641 103.421 123.494 108.523C117.854 115.343 113.913 123.405 111.997 132.045H108.349V100.975C108.349 100.586 108.257 100.202 108.08 99.8557C108.08 99.8557 100.702 85.3897 100.692 85.3698C100.261 84.5585 99.4182 84.0517 98.4991 84.0517C97.5801 84.0517 96.7369 84.5585 96.306 85.3698L88.9185 99.8557C88.7415 100.202 88.6491 100.586 88.6491 100.975V132.045H85.1676C83.4724 123.526 79.6018 115.592 73.9301 109.014L73.9313 109.013ZM103.425 104.957V132.044H93.575V104.957H103.425ZM94.3565 100.032L98.5 91.9089L102.643 100.032H94.3565ZM112.044 151.744H84.9562C83.5964 151.744 82.4937 150.642 82.4937 149.282C82.4937 147.922 83.5964 146.819 84.9562 146.819H112.044C113.404 146.819 114.506 147.922 114.506 149.282C114.506 150.642 113.404 151.744 112.044 151.744ZM112.044 141.894H84.9562C83.5964 141.894 82.4937 140.792 82.4937 139.432C82.4937 138.072 83.5964 136.969 84.9562 136.969H112.044C113.404 136.969 114.506 138.072 114.506 139.432C114.506 140.792 113.404 141.894 112.044 141.894Z" fill="#EFF2FF"/>
<path d="M152.675 88.95H144.549C143.189 88.95 142.086 90.0526 142.086 91.4125C142.086 92.7723 143.189 93.875 144.549 93.875H152.675C154.035 93.875 155.137 92.7723 155.137 91.4125C155.137 90.0526 154.035 88.95 152.675 88.95Z" fill="#EFF2FF"/>
<path d="M44.325 93.875H52.4512C53.8111 93.875 54.9137 92.7723 54.9137 91.4125C54.9137 90.0526 53.8111 88.95 52.4512 88.95H44.325C42.9651 88.95 41.8625 90.0526 41.8625 91.4125C41.8625 92.7723 42.9651 93.875 44.325 93.875Z" fill="#EFF2FF"/>
<path d="M137.779 127.098C138.767 127.084 139.653 126.483 140.029 125.568C140.405 124.654 140.199 123.603 139.504 122.899L134.086 117.581V117.58C133.115 116.631 131.559 116.648 130.608 117.616C129.656 118.586 129.669 120.141 130.635 121.094C130.635 121.094 136.046 126.407 136.052 126.413L136.053 126.414C136.517 126.859 137.136 127.104 137.779 127.098L137.779 127.098Z" fill="#EFF2FF"/>
<path d="M54.7576 56.4422C54.3002 56.9083 54.0463 57.5371 54.0518 58.1901C54.0584 58.8442 54.3233 59.4675 54.7894 59.926L60.2058 65.2444C61.1831 66.1788 62.7277 66.1645 63.6885 65.2125C64.1458 64.7464 64.3997 64.1176 64.3942 63.4646C64.3876 62.8116 64.1227 62.1872 63.6566 61.7298L58.2402 56.4114V56.4103C57.7741 55.953 57.1453 55.699 56.4923 55.7056C55.8393 55.7111 55.216 55.9761 54.7576 56.4422V56.4422Z" fill="#EFF2FF"/>
<path d="M138.758 56.4112L133.342 61.7296V61.7307C132.876 62.188 132.611 62.8125 132.604 63.4655C132.599 64.1185 132.853 64.7473 133.31 65.2134C134.27 66.1665 135.815 66.1808 136.793 65.2453L142.209 59.9268C143.175 58.9726 143.188 57.4171 142.237 56.4487C141.286 55.4791 139.73 55.4637 138.758 56.4113L138.758 56.4112Z" fill="#EFF2FF"/>
<path d="M66.3975 117.613C65.9402 117.146 65.3168 116.881 64.6627 116.875C64.0097 116.869 63.3809 117.123 62.9148 117.58L57.4973 122.899C57.0312 123.357 56.7662 123.981 56.7607 124.634C56.7541 125.287 57.0081 125.916 57.4665 126.382C58.4262 127.334 59.9708 127.348 60.9481 126.415L66.3656 121.096L66.3667 121.095C66.8317 120.638 67.0977 120.014 67.1032 119.36C67.1087 118.707 66.8548 118.08 66.3974 117.613L66.3975 117.613Z" fill="#EFF2FF"/>
<path d="M33.5716 58.5613C34.7061 59.2968 36.221 58.9934 36.9862 57.8775C37.8766 56.5418 38.8221 55.2183 39.7972 53.9451C40.6239 52.8645 40.4183 51.3199 39.3388 50.4931C38.2592 49.6653 36.7136 49.8709 35.8868 50.9505C34.8468 52.3092 33.8376 53.7208 32.8878 55.1466C32.1337 56.2778 32.4393 57.8069 33.5716 58.5611L33.5716 58.5613Z" fill="#EFF2FF"/>
<path d="M55.948 37.8752C56.4372 37.8752 56.9154 37.729 57.3199 37.4563C58.6446 36.5658 60.0221 35.7029 61.4127 34.8927C61.98 34.5651 62.3933 34.0253 62.5615 33.3932C62.7308 32.76 62.6396 32.0872 62.3109 31.521C61.9811 30.9549 61.4402 30.5437 60.807 30.3777C60.1738 30.2118 59.501 30.3041 58.9359 30.6361C57.4518 31.5002 55.9843 32.4203 54.5715 33.3701C53.6723 33.9747 53.2743 35.0961 53.5909 36.1327C53.9075 37.1694 54.865 37.8763 55.9479 37.8752L55.948 37.8752Z" fill="#EFF2FF"/>
<path d="M23.1135 86.4677C24.4458 86.7151 25.731 85.8499 26.0026 84.523C26.3104 82.951 26.6743 81.3668 27.0855 79.8155H27.0866C27.4318 78.5018 26.6479 77.1563 25.3353 76.8088C24.0216 76.4614 22.6749 77.2419 22.3254 78.5545C21.8857 80.209 21.4976 81.8998 21.17 83.5774C20.9084 84.912 21.7791 86.2059 23.1136 86.4677L23.1135 86.4677Z" fill="#EFF2FF"/>
<path d="M26.9577 71.9995C28.2142 72.5041 29.6445 71.9094 30.1733 70.6627C30.7813 69.1874 31.4508 67.7032 32.1642 66.251C32.7633 65.0297 32.2588 63.5533 31.0374 62.9552C29.8161 62.3561 28.3408 62.8607 27.7416 64.081C26.9831 65.6288 26.2685 67.2107 25.621 68.7839C25.3714 69.3874 25.3714 70.0657 25.6232 70.6693C25.8738 71.2717 26.3542 71.751 26.9578 71.9995L26.9577 71.9995Z" fill="#EFF2FF"/>
<path d="M44.4094 47.3942C45.0635 47.3953 45.6923 47.1337 46.154 46.6687C47.2852 45.5342 48.4703 44.4195 49.6752 43.3574H49.6741C50.1688 42.9265 50.47 42.3174 50.5129 41.6633C50.5569 41.0092 50.337 40.365 49.9039 39.8736C49.4707 39.3811 48.8595 39.0832 48.2043 39.0436C47.5502 39.0041 46.9071 39.2261 46.4179 39.6625C45.1328 40.7948 43.8696 41.9821 42.6636 43.1936H42.6647C41.9887 43.9082 41.7963 44.9526 42.1733 45.8606C42.5504 46.7687 43.4266 47.3689 44.4094 47.3942V47.3942Z" fill="#EFF2FF"/>
<path d="M98.289 24.9261L98.5 24.925C100.044 24.925 101.601 24.9734 103.126 25.0679C103.178 25.0712 103.229 25.0723 103.281 25.0723C104.61 25.0701 105.699 24.0137 105.738 22.6846C105.779 21.3566 104.758 20.2353 103.431 20.1517C101.806 20.0506 100.149 20 98.4837 20H98.4793L98.2892 20.0011H98.2881C96.9282 20.0011 95.8256 21.1026 95.8256 22.4636C95.8256 23.8235 96.9282 24.9261 98.2881 24.9261L98.289 24.9261Z" fill="#EFF2FF"/>
<path d="M126.578 30.4469C128.066 31.0593 129.55 31.7266 130.986 32.4334C132.207 33.0326 133.683 32.5291 134.282 31.3088C134.883 30.0875 134.379 28.6122 133.158 28.0119C131.622 27.2588 130.04 26.5454 128.451 25.8924C127.848 25.6417 127.168 25.6428 126.565 25.8946C125.96 26.1452 125.482 26.6267 125.233 27.2314C124.984 27.836 124.986 28.5143 125.238 29.1178C125.491 29.7213 125.973 30.1996 126.578 30.4469L126.578 30.4469Z" fill="#EFF2FF"/>
<path d="M139.366 37.2473C140.703 38.1367 142.027 39.081 143.301 40.055C144.381 40.8773 145.924 40.6707 146.748 39.5911C147.574 38.5127 147.369 36.9703 146.292 36.1425C144.933 35.1036 143.521 34.0956 142.094 33.1459V33.147C140.961 32.3961 139.434 32.7039 138.682 33.8351C137.929 34.9674 138.236 36.4944 139.366 37.2475L139.366 37.2473Z" fill="#EFF2FF"/>
<path d="M166.676 70.2941C167.295 71.7738 167.872 73.2908 168.391 74.8015H168.39C168.844 76.0767 170.232 76.7561 171.517 76.3317C172.135 76.1207 172.644 75.6721 172.931 75.0851C173.218 74.4981 173.26 73.822 173.049 73.2041C172.496 71.5914 171.88 69.9733 171.218 68.3923C170.693 67.138 169.251 66.5465 167.996 67.072C166.742 67.5975 166.151 69.0398 166.676 70.2941L166.676 70.2941Z" fill="#EFF2FF"/>
<path d="M170.917 84.1234C171.233 85.6856 171.502 87.2895 171.716 88.8903H171.717C171.918 90.2271 173.144 91.1626 174.488 91.001C175.134 90.9141 175.72 90.5734 176.117 90.0545C176.513 89.5345 176.686 88.8793 176.599 88.2318C176.368 86.5267 176.082 84.8172 175.747 83.1506C175.475 81.8204 174.178 80.9607 172.846 81.2289C171.516 81.4972 170.653 82.7922 170.917 84.1234H170.917Z" fill="#EFF2FF"/>
<path d="M112.707 26.2893C114.288 26.5982 115.873 26.961 117.414 27.3688C118.729 27.7173 120.077 26.9335 120.425 25.6187C120.772 24.3039 119.989 22.955 118.674 22.6077C117.028 22.1724 115.337 21.7843 113.649 21.4556C112.314 21.195 111.021 22.0668 110.761 23.4014C110.5 24.736 111.372 26.0288 112.707 26.2894L112.707 26.2893Z" fill="#EFF2FF"/>
<path d="M69.1104 30.7888C69.4347 30.7888 69.7568 30.724 70.0569 30.5975C71.5344 29.9808 73.0527 29.4047 74.5674 28.8859C75.1863 28.6759 75.6964 28.2274 75.9844 27.6403C76.2735 27.0533 76.3164 26.375 76.1042 25.7561C75.8921 25.1372 75.4424 24.6293 74.8543 24.3424C74.2673 24.0543 73.589 24.0136 72.9711 24.2269C71.3562 24.7799 69.737 25.3944 68.1604 26.0529H68.1593C67.0765 26.5048 66.4631 27.659 66.6939 28.81C66.9248 29.961 67.9362 30.7888 69.1102 30.7888L69.1104 30.7888Z" fill="#EFF2FF"/>
<path d="M83.4042 26.418C83.568 26.418 83.7307 26.4015 83.8912 26.3696C85.461 26.0541 87.0637 25.7869 88.6569 25.5759L88.6558 25.5748C90.0047 25.3956 90.9523 24.1577 90.772 22.81C90.5928 21.4611 89.355 20.5134 88.0072 20.6938C86.3087 20.9191 84.5983 21.2049 82.9229 21.5413L82.9218 21.5402C81.6818 21.7898 80.832 22.9386 80.9562 24.1973C81.0804 25.4561 82.1391 26.4169 83.4044 26.418L83.4042 26.418Z" fill="#EFF2FF"/>
<path d="M22.1625 101.403C23.5224 101.403 24.625 100.301 24.625 98.9406V98.7999C24.625 97.2301 24.6745 95.6505 24.7712 94.1046C24.857 92.748 23.8258 91.5783 22.4681 91.4926C21.1115 91.4079 19.9418 92.4391 19.8561 93.7957C19.7528 95.4436 19.7 97.1278 19.7 98.7998V98.9405C19.7 100.3 20.8026 101.403 22.1625 101.403L22.1625 101.403Z" fill="#EFF2FF"/>
<path d="M163.355 139.16C162.225 138.403 160.696 138.707 159.938 139.836C159.046 141.169 158.099 142.491 157.12 143.765H157.121C156.723 144.283 156.547 144.938 156.632 145.585C156.716 146.233 157.055 146.82 157.573 147.218C158.655 148.029 160.188 147.828 161.026 146.765C162.069 145.406 163.08 143.997 164.031 142.575C164.395 142.032 164.528 141.368 164.401 140.727C164.274 140.086 163.897 139.522 163.355 139.16L163.355 139.16Z" fill="#EFF2FF"/>
<path d="M157.589 46.6653C156.456 45.3835 155.267 44.1215 154.053 42.9145H154.055C153.591 42.4528 152.964 42.1944 152.31 42.1955C151.656 42.1977 151.03 42.4582 150.569 42.9221C150.108 43.3861 149.851 44.0138 149.853 44.6679C149.855 45.3209 150.118 45.9475 150.582 46.407C151.721 47.5382 152.835 48.7211 153.895 49.9237C154.803 50.9274 156.345 51.0231 157.371 50.1414C158.391 49.2411 158.488 47.6855 157.589 46.6652L157.589 46.6653Z" fill="#EFF2FF"/>
<path d="M162.373 61.657C163.069 62.8179 164.564 63.2114 165.741 62.5441C166.305 62.2143 166.715 61.6757 166.881 61.0436C167.047 60.4125 166.956 59.7408 166.627 59.1769C165.768 57.7005 164.847 56.234 163.891 54.8147L163.89 54.8136C163.13 53.6857 161.6 53.3867 160.472 54.1463C159.344 54.906 159.045 56.4373 159.805 57.5651C160.702 58.8964 161.566 60.2728 162.373 61.6568L162.373 61.657Z" fill="#EFF2FF"/>
<path d="M150.747 151.028C149.613 152.162 148.425 153.275 147.221 154.333C146.729 154.765 146.43 155.373 146.388 156.025C146.347 156.677 146.565 157.319 146.996 157.809C147.91 158.799 149.439 158.898 150.471 158.033C151.755 156.904 153.02 155.719 154.229 154.51C155.187 153.547 155.184 151.991 154.225 151.032C153.265 150.072 151.709 150.07 150.748 151.027L150.747 151.028Z" fill="#EFF2FF"/>
<path d="M139.566 160.219C138.233 161.113 136.855 161.972 135.47 162.775H135.469C134.904 163.101 134.491 163.64 134.323 164.271C134.155 164.902 134.245 165.574 134.572 166.139C135.273 167.291 136.756 167.687 137.937 167.036C139.414 166.181 140.885 165.264 142.308 164.311C143.437 163.553 143.739 162.024 142.983 160.894C142.225 159.764 140.696 159.461 139.566 160.219L139.566 160.219Z" fill="#EFF2FF"/>
<path d="M173.864 111.27C173.223 111.143 172.558 111.276 172.015 111.638C171.473 112.002 171.097 112.566 170.97 113.207C170.658 114.786 170.291 116.369 169.879 117.915H169.878C169.528 119.229 170.31 120.578 171.623 120.929C172.937 121.28 174.287 120.498 174.637 119.183C175.075 117.534 175.468 115.846 175.801 114.164C175.928 113.523 175.795 112.859 175.431 112.316C175.069 111.773 174.505 111.397 173.864 111.27V111.27Z" fill="#EFF2FF"/>
<path d="M174.837 96.056C173.478 96.056 172.375 97.1575 172.375 98.5185V98.7999C172.375 100.41 172.322 102.035 172.219 103.63C172.176 104.282 172.395 104.924 172.826 105.415C173.257 105.906 173.866 106.205 174.516 106.248C175.874 106.336 177.046 105.307 177.134 103.949C177.244 102.248 177.3 100.516 177.3 98.7998V98.5184C177.3 97.1574 176.197 96.0559 174.837 96.0559L174.837 96.056Z" fill="#EFF2FF"/>
<path d="M26.0541 113.341C25.7407 111.767 25.4747 110.164 25.2636 108.576L25.2647 108.577C25.0867 107.229 23.8499 106.28 22.501 106.458C21.1532 106.635 20.2045 107.873 20.3826 109.221C20.6058 110.916 20.8883 112.628 21.2258 114.308C21.493 115.641 22.7891 116.505 24.1226 116.239C25.4561 115.972 26.3212 114.675 26.0541 113.341L26.0541 113.341Z" fill="#EFF2FF"/>
<path d="M169.994 125.733C169.392 125.482 168.712 125.481 168.109 125.732C167.505 125.981 167.026 126.46 166.776 127.065C166.164 128.544 165.491 130.026 164.778 131.472L164.779 131.471C164.176 132.691 164.678 134.168 165.898 134.77C167.118 135.372 168.595 134.87 169.196 133.65C169.956 132.109 170.674 130.527 171.327 128.951C171.577 128.347 171.577 127.669 171.327 127.065C171.077 126.463 170.598 125.982 169.994 125.733L169.994 125.733Z" fill="#EFF2FF"/>
<path d="M126.817 167.055C125.338 167.669 123.82 168.242 122.303 168.758V168.757C121.016 169.195 120.327 170.595 120.766 171.882C121.24 173.136 122.607 173.808 123.891 173.42C125.507 172.869 127.127 172.258 128.705 171.603C129.959 171.08 130.553 169.641 130.032 168.386C129.512 167.132 128.073 166.535 126.817 167.055L126.817 167.055Z" fill="#EFF2FF"/>
<path d="M43.0136 147.572C42.1144 146.552 40.5599 146.454 39.5385 147.352C38.5183 148.249 38.4183 149.804 39.3143 150.826C40.4444 152.11 41.6317 153.374 42.842 154.582C43.8127 155.525 45.3572 155.524 46.3258 154.579C47.2866 153.616 47.2844 152.057 46.3225 151.096C45.1858 149.963 44.0721 148.777 43.0134 147.572L43.0136 147.572Z" fill="#EFF2FF"/>
<path d="M34.5594 135.828C34.2318 135.263 33.6932 134.849 33.0621 134.681C32.43 134.513 31.7572 134.602 31.1922 134.929C30.6271 135.258 30.2149 135.797 30.0467 136.429C29.8796 137.06 29.9697 137.733 30.2973 138.298C31.1493 139.77 32.0684 141.24 33.0281 142.668C33.7965 143.781 35.3114 144.079 36.4449 143.339C36.9869 142.975 37.3628 142.411 37.4893 141.77C37.6146 141.13 37.4816 140.464 37.1166 139.923C36.2184 138.584 35.3577 137.206 34.5596 135.827L34.5594 135.828Z" fill="#EFF2FF"/>
<path d="M57.5212 160.278C56.18 159.382 54.8575 158.434 53.591 157.462V157.463C52.5115 156.636 50.9669 156.84 50.139 157.919C49.3123 158.997 49.5146 160.542 50.592 161.37C51.9441 162.407 53.3546 163.418 54.7847 164.373V164.374C55.9225 165.093 57.4242 164.794 58.2004 163.695C58.9556 162.564 58.6511 161.034 57.521 160.278L57.5212 160.278Z" fill="#EFF2FF"/>
<path d="M30.2705 127.179C29.6505 125.689 29.0766 124.172 28.5665 122.672V122.671C28.1301 121.383 26.7317 120.694 25.4432 121.132C24.1559 121.568 23.4666 122.966 23.9042 124.255C24.4483 125.86 25.0618 127.482 25.7258 129.073V129.072C26.26 130.316 27.6903 130.905 28.9456 130.399C29.548 130.147 30.0262 129.667 30.2747 129.063C30.5231 128.46 30.522 127.782 30.2703 127.179L30.2705 127.179Z" fill="#EFF2FF"/>
<path d="M84.1584 171.285C82.5809 170.975 80.998 170.609 79.4532 170.198C78.8211 170.025 78.145 170.112 77.5778 170.439C77.0094 170.766 76.595 171.306 76.4256 171.94C76.2575 172.573 76.3487 173.247 76.6785 173.814C77.0083 174.38 77.5514 174.792 78.1857 174.957C79.8347 175.395 81.5231 175.787 83.2086 176.117C84.5377 176.369 85.8217 175.501 86.0823 174.173C86.3439 172.845 85.4842 171.555 84.1585 171.285L84.1584 171.285Z" fill="#EFF2FF"/>
<path d="M98.5 172.675C96.9126 172.675 95.3109 172.624 93.7377 172.524C93.0847 172.482 92.4427 172.7 91.9513 173.132C91.461 173.563 91.162 174.173 91.1202 174.825C91.0784 175.477 91.2983 176.12 91.7303 176.611C92.1624 177.101 92.7725 177.399 93.4244 177.44C95.102 177.546 96.8091 177.6 98.5 177.6C99.1584 177.609 99.7939 177.353 100.263 176.89C100.732 176.427 100.997 175.796 100.998 175.138C100.981 173.771 99.8664 172.673 98.5 172.675L98.5 172.675Z" fill="#EFF2FF"/>
<path d="M112.977 171.257C111.404 171.569 109.8 171.833 108.21 172.042V172.043C107.562 172.127 106.975 172.466 106.577 172.984C106.178 173.501 106.002 174.157 106.088 174.804C106.309 176.127 107.515 177.052 108.85 176.925C110.547 176.703 112.259 176.42 113.936 176.087C115.27 175.822 116.136 174.526 115.871 173.193C115.606 171.859 114.31 170.992 112.977 171.257L112.977 171.257Z" fill="#EFF2FF"/>
<path d="M70.298 167.103C68.8128 166.489 67.332 165.818 65.8931 165.107C64.6728 164.506 63.1964 165.007 62.5939 166.228C61.9926 167.447 62.4938 168.924 63.7141 169.526C65.2499 170.283 66.8318 170.999 68.4159 171.654H68.4148C69.6714 172.174 71.1126 171.576 71.6327 170.319C72.1528 169.063 71.5547 167.623 70.2981 167.103H70.298Z" fill="#EFF2FF"/>
</svg>
