<svg width="250" height="242" viewBox="0 0 250 242" fill="none" xmlns="http://www.w3.org/2000/svg">
<ellipse cx="125" cy="122.5" rx="125" ry="118.5" fill="url(#paint0_radial_15_2302)" fill-opacity="0.4"/>
<path d="M70.1585 214.333L52.378 222.037M70.1585 214.333L45.8585 200.111M70.1585 214.333L101.571 235.667M52.378 222.037L45.8585 200.111M52.378 222.037L101.571 235.667M52.378 222.037L6.14878 162.185M45.8585 200.111L90.3098 185.296M45.8585 200.111L32.8195 142.63M45.8585 200.111L6.14878 162.185M90.3098 185.296L101.571 235.667M90.3098 185.296L161.432 203.667M90.3098 185.296L91.4951 112.407M90.3098 185.296L144.837 150.333M90.3098 185.296L32.8195 142.63M101.571 235.667L123.5 241M101.571 235.667L161.432 203.667M123.5 241L166.173 235.667M123.5 241L194.029 214.333M166.173 235.667L161.432 203.667M166.173 235.667L196.4 217.889M161.432 203.667L144.837 150.333M161.432 203.667L206.476 142.63M161.432 203.667L219.515 193M144.837 150.333L206.476 142.63M144.837 150.333L163.802 86.9259M144.837 150.333L91.4951 112.407M219.515 193L206.476 142.63M219.515 193L196.4 217.889M219.515 193L242.629 156.852L245 131.963M219.515 193L231.961 150.333L245 131.963M219.515 193L194.029 214.333M206.476 142.63L245 131.963M206.476 142.63L219.515 74.4815M206.476 142.63L163.802 86.9259M196.4 217.889L194.029 214.333M245 131.963L219.515 74.4815M245 131.963L242.629 79.2222M163.802 86.9259L91.4951 112.407M163.802 86.9259L219.515 74.4815M163.802 86.9259L167.951 31.2222M163.802 86.9259L105.127 42.4815M91.4951 112.407L105.127 42.4815M91.4951 112.407L47.0439 76.8519M91.4951 112.407L32.8195 142.63M219.515 74.4815L242.629 79.2222M219.515 74.4815L167.951 31.2222M219.515 74.4815L210.891 53.7407M242.629 79.2222L197.585 21.7407M242.629 79.2222L210.891 53.7407M197.585 21.7407L167.951 31.2222M197.585 21.7407L147.207 7.5233M197.585 21.7407L210.891 53.7407M167.951 31.2222L105.127 42.4815M167.951 31.2222L124.093 1M105.127 42.4815L124.093 1M105.127 42.4815L52.378 29.4444M105.127 42.4815L47.0439 76.8519M124.093 1L80.8268 8.11111M124.093 1L52.378 29.4444M124.093 1L147.207 7.5233M80.8268 8.11111L52.378 29.4444M80.8268 8.11111L147.207 7.5233M52.378 29.4444L47.0439 76.8519M52.378 29.4444L27.4854 47.2222L6.14878 89.2963M52.378 29.4444L6.14878 89.2963M47.0439 76.8519L6.14878 89.2963M47.0439 76.8519L32.8195 142.63M6.14878 89.2963L2 114.185L6.14878 162.185M6.14878 89.2963L32.8195 142.63M6.14878 89.2963L10.2976 114.185L6.14878 162.185M6.14878 162.185L32.8195 142.63" stroke="white"/>
<g filter="url(#filter0_f_15_2302)">
<circle cx="92" cy="112" r="5" fill="#EFF2FF"/>
</g>
<g filter="url(#filter1_f_15_2302)">
<circle cx="90" cy="184" r="5" fill="#EFF2FF"/>
</g>
<g filter="url(#filter2_f_15_2302)">
<circle cx="145" cy="151" r="5" fill="#EFF2FF"/>
</g>
<g filter="url(#filter3_f_15_2302)">
<circle cx="164" cy="87" r="5" fill="#EFF2FF"/>
</g>
<g filter="url(#filter4_f_15_2302)">
<circle cx="106" cy="43" r="5" fill="#EFF2FF"/>
</g>
<g filter="url(#filter5_f_15_2302)">
<circle cx="207" cy="143" r="5" fill="#EFF2FF"/>
</g>
<g filter="url(#filter6_f_15_2302)">
<circle cx="161" cy="203" r="5" fill="#EFF2FF"/>
</g>
<g filter="url(#filter7_f_15_2302)">
<circle cx="48" cy="75" r="5" fill="#EFF2FF"/>
</g>
<g filter="url(#filter8_f_15_2302)">
<circle cx="34" cy="143" r="5" fill="#EFF2FF"/>
</g>
<g filter="url(#filter9_f_15_2302)">
<circle cx="220" cy="75" r="5" fill="#EFF2FF"/>
</g>
<g filter="url(#filter10_f_15_2302)">
<circle cx="169" cy="30" r="5" fill="#EFF2FF"/>
</g>
<g filter="url(#filter11_f_15_2302)">
<circle cx="48" cy="200" r="5" fill="#EFF2FF"/>
</g>
<circle cx="92" cy="112" r="3" fill="#EFF2FF"/>
<circle cx="90" cy="184" r="3" fill="#EFF2FF"/>
<circle cx="145" cy="151" r="3" fill="#EFF2FF"/>
<circle cx="164" cy="87" r="3" fill="#EFF2FF"/>
<circle cx="106" cy="43" r="3" fill="#EFF2FF"/>
<circle cx="207" cy="143" r="3" fill="#EFF2FF"/>
<circle cx="161" cy="203" r="3" fill="#EFF2FF"/>
<circle cx="48" cy="75" r="3" fill="#EFF2FF"/>
<circle cx="34" cy="143" r="3" fill="#EFF2FF"/>
<circle cx="220" cy="75" r="3" fill="#EFF2FF"/>
<circle cx="169" cy="30" r="3" fill="#EFF2FF"/>
<circle cx="48" cy="200" r="3" fill="#EFF2FF"/>
<defs>
<filter id="filter0_f_15_2302" x="80" y="100" width="24" height="24" filterUnits="userSpaceOnUse" color-interpolation-filters="sRGB">
<feFlood flood-opacity="0" result="BackgroundImageFix"/>
<feBlend mode="normal" in="SourceGraphic" in2="BackgroundImageFix" result="shape"/>
<feGaussianBlur stdDeviation="3.5" result="effect1_foregroundBlur_15_2302"/>
</filter>
<filter id="filter1_f_15_2302" x="78" y="172" width="24" height="24" filterUnits="userSpaceOnUse" color-interpolation-filters="sRGB">
<feFlood flood-opacity="0" result="BackgroundImageFix"/>
<feBlend mode="normal" in="SourceGraphic" in2="BackgroundImageFix" result="shape"/>
<feGaussianBlur stdDeviation="3.5" result="effect1_foregroundBlur_15_2302"/>
</filter>
<filter id="filter2_f_15_2302" x="133" y="139" width="24" height="24" filterUnits="userSpaceOnUse" color-interpolation-filters="sRGB">
<feFlood flood-opacity="0" result="BackgroundImageFix"/>
<feBlend mode="normal" in="SourceGraphic" in2="BackgroundImageFix" result="shape"/>
<feGaussianBlur stdDeviation="3.5" result="effect1_foregroundBlur_15_2302"/>
</filter>
<filter id="filter3_f_15_2302" x="152" y="75" width="24" height="24" filterUnits="userSpaceOnUse" color-interpolation-filters="sRGB">
<feFlood flood-opacity="0" result="BackgroundImageFix"/>
<feBlend mode="normal" in="SourceGraphic" in2="BackgroundImageFix" result="shape"/>
<feGaussianBlur stdDeviation="3.5" result="effect1_foregroundBlur_15_2302"/>
</filter>
<filter id="filter4_f_15_2302" x="94" y="31" width="24" height="24" filterUnits="userSpaceOnUse" color-interpolation-filters="sRGB">
<feFlood flood-opacity="0" result="BackgroundImageFix"/>
<feBlend mode="normal" in="SourceGraphic" in2="BackgroundImageFix" result="shape"/>
<feGaussianBlur stdDeviation="3.5" result="effect1_foregroundBlur_15_2302"/>
</filter>
<filter id="filter5_f_15_2302" x="195" y="131" width="24" height="24" filterUnits="userSpaceOnUse" color-interpolation-filters="sRGB">
<feFlood flood-opacity="0" result="BackgroundImageFix"/>
<feBlend mode="normal" in="SourceGraphic" in2="BackgroundImageFix" result="shape"/>
<feGaussianBlur stdDeviation="3.5" result="effect1_foregroundBlur_15_2302"/>
</filter>
<filter id="filter6_f_15_2302" x="149" y="191" width="24" height="24" filterUnits="userSpaceOnUse" color-interpolation-filters="sRGB">
<feFlood flood-opacity="0" result="BackgroundImageFix"/>
<feBlend mode="normal" in="SourceGraphic" in2="BackgroundImageFix" result="shape"/>
<feGaussianBlur stdDeviation="3.5" result="effect1_foregroundBlur_15_2302"/>
</filter>
<filter id="filter7_f_15_2302" x="36" y="63" width="24" height="24" filterUnits="userSpaceOnUse" color-interpolation-filters="sRGB">
<feFlood flood-opacity="0" result="BackgroundImageFix"/>
<feBlend mode="normal" in="SourceGraphic" in2="BackgroundImageFix" result="shape"/>
<feGaussianBlur stdDeviation="3.5" result="effect1_foregroundBlur_15_2302"/>
</filter>
<filter id="filter8_f_15_2302" x="22" y="131" width="24" height="24" filterUnits="userSpaceOnUse" color-interpolation-filters="sRGB">
<feFlood flood-opacity="0" result="BackgroundImageFix"/>
<feBlend mode="normal" in="SourceGraphic" in2="BackgroundImageFix" result="shape"/>
<feGaussianBlur stdDeviation="3.5" result="effect1_foregroundBlur_15_2302"/>
</filter>
<filter id="filter9_f_15_2302" x="208" y="63" width="24" height="24" filterUnits="userSpaceOnUse" color-interpolation-filters="sRGB">
<feFlood flood-opacity="0" result="BackgroundImageFix"/>
<feBlend mode="normal" in="SourceGraphic" in2="BackgroundImageFix" result="shape"/>
<feGaussianBlur stdDeviation="3.5" result="effect1_foregroundBlur_15_2302"/>
</filter>
<filter id="filter10_f_15_2302" x="157" y="18" width="24" height="24" filterUnits="userSpaceOnUse" color-interpolation-filters="sRGB">
<feFlood flood-opacity="0" result="BackgroundImageFix"/>
<feBlend mode="normal" in="SourceGraphic" in2="BackgroundImageFix" result="shape"/>
<feGaussianBlur stdDeviation="3.5" result="effect1_foregroundBlur_15_2302"/>
</filter>
<filter id="filter11_f_15_2302" x="36" y="188" width="24" height="24" filterUnits="userSpaceOnUse" color-interpolation-filters="sRGB">
<feFlood flood-opacity="0" result="BackgroundImageFix"/>
<feBlend mode="normal" in="SourceGraphic" in2="BackgroundImageFix" result="shape"/>
<feGaussianBlur stdDeviation="3.5" result="effect1_foregroundBlur_15_2302"/>
</filter>
<radialGradient id="paint0_radial_15_2302" cx="0" cy="0" r="1" gradientUnits="userSpaceOnUse" gradientTransform="translate(125 122.5) rotate(90) scale(118.5 125)">
<stop stop-color="#E543E8"/>
<stop offset="1" stop-color="#00082F"/>
</radialGradient>
</defs>
</svg>
