<svg width="76" height="82" viewBox="0 0 76 82" fill="none" xmlns="http://www.w3.org/2000/svg">
<path d="M75.9284 20.2487L63.6911 27.2854C62.5461 27.9317 63.2617 29.1523 64.9077 29.2241H64.9793L63.6911 29.9422C62.5461 30.5884 63.2617 31.8091 64.9077 31.8809C65.1939 31.8809 65.4802 54.2837 65.7664 54.3555L75.9284 48.5394H76L75.9284 20.2487Z" fill="url(#paint0_linear_78_1214)"/>
<path d="M64.9072 50.4781L64.9788 50.4063C64.9788 50.4063 64.9072 50.4063 64.9072 50.4781C64.9072 50.4063 64.9072 50.4063 64.9072 50.4781Z" fill="#EB4680"/>
<path d="M75.928 38.7741L63.6907 45.7391C62.5457 46.3853 63.2613 47.606 64.9072 47.6778H64.9788L63.6907 48.3958C63.3329 48.6112 63.1182 48.8985 63.1182 49.1139C63.1182 48.8266 63.3329 48.6112 63.6907 48.3958L75.928 41.359H75.9995L75.928 38.7741Z" fill="#EFF2FF"/>
<path d="M33.9925 51.627C35.1375 52.4168 35.9247 53.3503 36.354 54.3555C36.7119 53.4221 36.7834 29.9422 36.4256 29.0088C37.0697 26.9982 36.2825 24.8441 33.9925 23.3362C29.6987 20.5359 22.3277 20.4641 17.8192 23.049C15.9586 24.1261 14.8851 25.5622 14.6704 26.9982C14.5273 27.7163 13.0245 28.0753 12.0942 27.5727L0 20.6795V48.9702L12.0226 55.7916C12.9529 56.2942 14.4557 56.007 14.5989 55.2172C14.8136 53.7811 15.887 52.4168 17.7476 51.2679C22.2561 48.7548 29.6271 48.8984 33.9925 51.627Z" fill="url(#paint1_linear_78_1214)"/>
<path opacity="0.5" d="M14.5986 55.289C14.8133 53.8529 15.8868 52.4886 17.7474 51.3397C22.2559 48.7548 29.6269 48.8266 33.9207 51.627C35.0657 52.4168 35.8529 53.3503 36.2823 54.3555C36.6401 53.4221 36.7116 29.9422 36.3538 29.0087C36.9979 26.9982 36.2107 24.8441 33.9207 23.3362C29.6269 20.5359 22.2559 20.4641 17.7474 23.049C15.8868 24.1261 14.8133 25.5622 14.5986 26.9982V55.289Z" fill="url(#paint2_linear_78_1214)"/>
<path d="M14.5989 48.1804C14.8136 46.7443 15.887 45.38 17.7476 44.2312C22.2561 41.6462 29.6271 41.718 33.9209 44.5184C35.209 45.38 35.9962 46.4571 36.354 47.6059C36.354 47.5341 36.354 47.5341 36.354 47.4623C36.9981 45.4518 36.2109 43.2977 33.9209 41.7898C29.6271 38.9895 22.2561 38.9177 17.7476 41.5026C15.887 42.5797 14.8136 44.0158 14.5989 45.4518C14.4557 46.1699 12.9529 46.5289 12.0226 46.0263L0 39.2049V41.9334L12.0226 48.7548C12.9529 49.2574 14.4557 48.8984 14.5989 48.1804Z" fill="#EFF2FF"/>
<path d="M37.9284 42.2207L25.8342 35.5429C25.6911 35.4711 25.548 35.3275 25.4764 35.2557V62.9002C25.2617 63.1874 25.3333 63.5464 25.8342 63.8336L37.9284 70.5114V42.2207Z" fill="url(#paint3_linear_78_1214)"/>
<path d="M37.9287 70.5114L50.3091 63.331C51.4541 62.6848 53.5295 63.1156 53.601 64.049C53.7442 65.5569 54.8892 67.0648 57.0361 68.2137C61.0436 70.3678 67.4843 70.3678 71.4918 68.2137C73.6387 67.0648 74.7837 65.4851 74.8553 63.9054H74.9268V35.6147H74.8553C74.7837 37.1944 73.6387 38.7023 71.4918 39.923C67.4843 42.0771 61.0436 42.0771 57.0361 39.923C54.9607 38.7741 53.8157 37.338 53.601 35.7583C53.4579 34.8249 51.4541 34.3941 50.3091 35.0403L37.9287 42.2207V70.5114Z" fill="url(#paint4_linear_78_1214)"/>
<path d="M25.5478 81.4256C25.4046 81.641 25.4046 81.8564 25.5478 82V81.4256Z" fill="#EB4680"/>
<path d="M25.8344 54.3555C25.6913 54.2837 25.5481 54.1401 25.4766 54.0683V56.4378C25.5481 56.5814 25.6197 56.6532 25.8344 56.725L37.9285 63.4028V61.0333L25.8344 54.3555Z" fill="#EFF2FF"/>
<path d="M74.8553 54.1401C74.7837 55.7198 73.6387 57.5867 71.4918 58.8074C67.4843 60.9615 61.0436 60.9615 57.0361 58.8074C54.9607 57.6585 53.8157 56.2224 53.601 54.6427C53.4579 53.7093 51.4541 53.2785 50.3091 53.9247L37.9287 61.0333V63.4028L50.3091 56.2224C51.4541 55.5762 53.5295 56.007 53.601 56.9405C53.7442 58.4483 54.8892 59.9562 57.0361 61.1051C61.0436 63.2592 67.4843 63.2592 71.4918 61.1051C73.6387 59.9562 74.7837 58.3765 74.8553 56.7968H74.9268V54.4273L74.8553 54.1401Z" fill="#EFF2FF"/>
<path d="M17.8192 23.049C22.3277 20.4641 29.6987 20.5359 33.9925 23.3363C37.4991 25.5622 37.5706 29.5832 34.064 31.8809C32.1318 33.1734 29.484 33.8914 26.8362 34.035C25.548 34.1068 24.9755 34.9685 25.9058 35.5429L37.9284 42.2207L50.3089 35.0403C51.4539 34.394 53.5292 34.8249 53.6008 35.7583C53.7439 37.2662 54.8889 38.7741 57.0358 39.9229C61.0433 42.0771 67.484 42.0771 71.4915 39.9229C75.9284 37.5534 76 33.5324 71.7778 31.0193C69.8456 29.9422 67.4124 29.296 64.9077 29.2242C63.2618 29.1524 62.5461 27.9317 63.6912 27.2855L75.9284 20.2487L41.936 1.07706C39.4313 -0.359019 36.4256 -0.359019 33.9209 1.07706L0 20.6795L12.0226 27.5009C12.9529 28.0035 14.4557 27.7163 14.5989 26.9264C14.8136 25.5622 15.887 24.1261 17.8192 23.049Z" fill="#FBB355"/>
<path d="M33.9925 23.3363C35.5669 24.4133 36.4972 25.8494 36.5687 27.2855C36.7834 25.5622 35.8531 23.7671 33.9209 22.5464C29.6271 19.7461 22.2561 19.6743 17.7476 22.2592C15.887 23.3363 14.8136 24.7723 14.5273 26.2084C14.3842 26.9264 12.8814 27.2855 11.951 26.7828L0.715631 20.3205L0 20.7513L12.0226 27.5727C12.9529 28.0753 14.4557 27.7881 14.5989 26.9983C14.8136 25.5622 15.887 24.1979 17.8192 23.049C22.2561 20.4641 29.6271 20.6077 33.9925 23.3363Z" fill="#FBB355"/>
<path d="M71.4921 39.0613C67.4846 41.2154 61.0439 41.2154 57.0364 39.0613C54.961 37.9125 53.816 36.4764 53.6013 34.8967C53.4582 33.9633 51.4544 33.5324 50.3094 34.1787L37.929 41.359L25.8349 34.6813C25.7633 34.6095 25.6202 34.5377 25.6202 34.4659C25.3339 34.7531 25.3339 35.1839 25.8349 35.4711L37.929 42.2207L50.3094 35.0403C51.4544 34.3941 53.5298 34.8249 53.6013 35.7583C53.7445 37.2662 54.8895 38.7741 57.0364 39.923C61.0439 42.0771 67.4846 42.0771 71.4921 39.923C73.9968 38.6305 75.0703 36.7636 74.8556 34.9685C74.7124 36.4764 73.5674 37.9843 71.4921 39.0613Z" fill="#FBB355"/>
<path d="M63.6907 26.4238C63.1182 26.7828 62.975 27.2855 63.2613 27.6445C63.3329 27.5009 63.476 27.3573 63.6907 27.2855L75.928 20.2487L75.2123 19.8179L63.6907 26.4238Z" fill="#FBB355"/>
<defs>
<linearGradient id="paint0_linear_78_1214" x1="69.5659" y1="20.2487" x2="69.5659" y2="54.3555" gradientUnits="userSpaceOnUse">
<stop stop-color="#FDC043"/>
<stop offset="1" stop-color="#E543E8"/>
</linearGradient>
<linearGradient id="paint1_linear_78_1214" x1="18.3304" y1="20.6795" x2="18.3304" y2="56.0416" gradientUnits="userSpaceOnUse">
<stop stop-color="#FDC043"/>
<stop offset="1" stop-color="#E543E8"/>
</linearGradient>
<linearGradient id="paint2_linear_78_1214" x1="25.5938" y1="21.1709" x2="25.5938" y2="55.289" gradientUnits="userSpaceOnUse">
<stop stop-color="#FDC043"/>
<stop offset="1" stop-color="#E543E8"/>
</linearGradient>
<linearGradient id="paint3_linear_78_1214" x1="31.6454" y1="35.2557" x2="31.6454" y2="70.5114" gradientUnits="userSpaceOnUse">
<stop stop-color="#FDC043"/>
<stop offset="1" stop-color="#E543E8"/>
</linearGradient>
<linearGradient id="paint4_linear_78_1214" x1="56.4278" y1="34.7318" x2="56.4278" y2="70.5114" gradientUnits="userSpaceOnUse">
<stop stop-color="#FDC043"/>
<stop offset="1" stop-color="#E543E8"/>
</linearGradient>
</defs>
</svg>
