<svg width="143" height="116" viewBox="0 0 143 116" fill="none" xmlns="http://www.w3.org/2000/svg">
<path d="M142.928 20.2487L130.691 27.2854C129.546 27.9317 130.262 29.1523 131.908 29.2241H131.979L130.691 29.9422C129.546 30.5884 130.262 31.8091 131.908 31.8809C132.194 31.8809 132.48 54.2837 132.766 54.3555L142.928 48.5394H143L142.928 20.2487Z" fill="url(#paint0_linear_78_2429)"/>
<path d="M131.907 50.4781L131.979 50.4063C131.979 50.4063 131.907 50.4063 131.907 50.4781C131.907 50.4063 131.907 50.4063 131.907 50.4781Z" fill="#EB4680"/>
<path d="M142.928 38.7741L130.691 45.7391C129.546 46.3853 130.261 47.606 131.907 47.6778H131.979L130.691 48.3958C130.333 48.6112 130.118 48.8985 130.118 49.1139C130.118 48.8266 130.333 48.6112 130.691 48.3958L142.928 41.359H143L142.928 38.7741Z" fill="#EFF2FF"/>
<path d="M100.992 51.627C102.137 52.4168 102.925 53.3503 103.354 54.3555C103.712 53.4221 103.783 29.9422 103.426 29.0088C104.07 26.9982 103.282 24.8441 100.992 23.3362C96.6987 20.5359 89.3277 20.4641 84.8192 23.049C82.9586 24.1261 81.8851 25.5622 81.6704 26.9982C81.5273 27.7163 80.0245 28.0753 79.0942 27.5727L67 20.6795V48.9702L79.0226 55.7916C79.9529 56.2942 81.4557 56.007 81.5989 55.2172C81.8136 53.7811 82.887 52.4168 84.7476 51.2679C89.2561 48.7548 96.6271 48.8984 100.992 51.627Z" fill="url(#paint1_linear_78_2429)"/>
<path opacity="0.5" d="M81.5986 55.289C81.8133 53.8529 82.8868 52.4886 84.7474 51.3397C89.2559 48.7548 96.6269 48.8266 100.921 51.627C102.066 52.4168 102.853 53.3503 103.282 54.3555C103.64 53.4221 103.712 29.9422 103.354 29.0087C103.998 26.9982 103.211 24.8441 100.921 23.3362C96.6269 20.5359 89.2559 20.4641 84.7474 23.049C82.8868 24.1261 81.8133 25.5622 81.5986 26.9982V55.289Z" fill="url(#paint2_linear_78_2429)"/>
<path d="M81.5989 48.1804C81.8136 46.7443 82.887 45.38 84.7476 44.2312C89.2561 41.6462 96.6271 41.718 100.921 44.5184C102.209 45.38 102.996 46.4571 103.354 47.6059C103.354 47.5341 103.354 47.5341 103.354 47.4623C103.998 45.4518 103.211 43.2977 100.921 41.7898C96.6271 38.9895 89.2561 38.9177 84.7476 41.5026C82.887 42.5797 81.8136 44.0158 81.5989 45.4518C81.4557 46.1699 79.9529 46.5289 79.0226 46.0263L67 39.2049V41.9334L79.0226 48.7548C79.9529 49.2574 81.4557 48.8984 81.5989 48.1804Z" fill="#EFF2FF"/>
<path d="M104.928 42.2207L92.8342 35.5429C92.6911 35.4711 92.548 35.3275 92.4764 35.2557V62.9002C92.2617 63.1874 92.3333 63.5464 92.8342 63.8336L104.928 70.5114V42.2207Z" fill="url(#paint3_linear_78_2429)"/>
<path d="M104.929 70.5114L117.309 63.331C118.454 62.6848 120.529 63.1156 120.601 64.049C120.744 65.5569 121.889 67.0648 124.036 68.2137C128.044 70.3678 134.484 70.3678 138.492 68.2137C140.639 67.0648 141.784 65.4851 141.855 63.9054H141.927V35.6147H141.855C141.784 37.1944 140.639 38.7023 138.492 39.923C134.484 42.0771 128.044 42.0771 124.036 39.923C121.961 38.7741 120.816 37.338 120.601 35.7583C120.458 34.8249 118.454 34.3941 117.309 35.0403L104.929 42.2207V70.5114Z" fill="url(#paint4_linear_78_2429)"/>
<path d="M92.5478 81.4256C92.4046 81.641 92.4046 81.8564 92.5478 82V81.4256Z" fill="#EB4680"/>
<path d="M92.8344 54.3555C92.6913 54.2837 92.5481 54.1401 92.4766 54.0683V56.4378C92.5481 56.5814 92.6197 56.6532 92.8344 56.725L104.929 63.4028V61.0333L92.8344 54.3555Z" fill="#EFF2FF"/>
<path d="M141.855 54.1401C141.784 55.7198 140.639 57.5867 138.492 58.8074C134.484 60.9615 128.044 60.9615 124.036 58.8074C121.961 57.6585 120.816 56.2224 120.601 54.6427C120.458 53.7093 118.454 53.2785 117.309 53.9247L104.929 61.0333V63.4028L117.309 56.2224C118.454 55.5762 120.529 56.007 120.601 56.9405C120.744 58.4483 121.889 59.9562 124.036 61.1051C128.044 63.2592 134.484 63.2592 138.492 61.1051C140.639 59.9562 141.784 58.3765 141.855 56.7968H141.927V54.4273L141.855 54.1401Z" fill="#EFF2FF"/>
<path d="M84.8192 23.049C89.3277 20.4641 96.6987 20.5359 100.992 23.3363C104.499 25.5622 104.571 29.5832 101.064 31.8809C99.1318 33.1734 96.484 33.8914 93.8362 34.035C92.548 34.1068 91.9755 34.9685 92.9058 35.5429L104.928 42.2207L117.309 35.0403C118.454 34.394 120.529 34.8249 120.601 35.7583C120.744 37.2662 121.889 38.7741 124.036 39.9229C128.043 42.0771 134.484 42.0771 138.492 39.9229C142.928 37.5534 143 33.5324 138.778 31.0193C136.846 29.9422 134.412 29.296 131.908 29.2242C130.262 29.1524 129.546 27.9317 130.691 27.2855L142.928 20.2487L108.936 1.07706C106.431 -0.359019 103.426 -0.359019 100.921 1.07706L67 20.6795L79.0226 27.5009C79.9529 28.0035 81.4557 27.7163 81.5989 26.9264C81.8136 25.5622 82.887 24.1261 84.8192 23.049Z" fill="#FBB355"/>
<path d="M100.992 23.3363C102.567 24.4133 103.497 25.8494 103.569 27.2855C103.783 25.5622 102.853 23.7671 100.921 22.5464C96.6271 19.7461 89.2561 19.6743 84.7476 22.2592C82.887 23.3363 81.8136 24.7723 81.5273 26.2084C81.3842 26.9264 79.8814 27.2855 78.951 26.7828L67.7156 20.3205L67 20.7513L79.0226 27.5727C79.9529 28.0753 81.4557 27.7881 81.5989 26.9983C81.8136 25.5622 82.887 24.1979 84.8192 23.049C89.2561 20.4641 96.6271 20.6077 100.992 23.3363Z" fill="#FBB355"/>
<path d="M138.492 39.0613C134.485 41.2154 128.044 41.2154 124.036 39.0613C121.961 37.9125 120.816 36.4764 120.601 34.8967C120.458 33.9633 118.454 33.5324 117.309 34.1787L104.929 41.359L92.8349 34.6813C92.7633 34.6095 92.6202 34.5377 92.6202 34.4659C92.3339 34.7531 92.3339 35.1839 92.8349 35.4711L104.929 42.2207L117.309 35.0403C118.454 34.3941 120.53 34.8249 120.601 35.7583C120.744 37.2662 121.889 38.7741 124.036 39.923C128.044 42.0771 134.485 42.0771 138.492 39.923C140.997 38.6305 142.07 36.7636 141.856 34.9685C141.712 36.4764 140.567 37.9843 138.492 39.0613Z" fill="#FBB355"/>
<path d="M130.691 26.4238C130.118 26.7828 129.975 27.2855 130.261 27.6445C130.333 27.5009 130.476 27.3573 130.691 27.2855L142.928 20.2487L142.212 19.8179L130.691 26.4238Z" fill="#FBB355"/>
<path d="M64.9212 78.9363C67.1793 78.7261 69.3668 78.0955 71.0604 77.1146C73.0363 75.9235 73.9537 74.3121 73.8125 72.7006H73.8831V48.1783V47.6879V45.0955H73.8125C73.9537 46.6369 73.0363 48.2484 71.0604 49.4395C69.1551 50.6306 66.6148 51.2611 64.0744 51.3312C62.4513 51.4013 61.7457 52.5223 62.8747 53.2229L64.2155 53.9936C64.1449 53.9936 64.1449 53.9936 64.0744 53.9936C62.3808 54.0637 64.9212 78.9363 64.9212 78.9363ZM73.742 48.1783C73.742 48.2484 73.742 48.2484 73.742 48.3185C73.742 48.2484 73.742 48.2484 73.742 48.1783Z" fill="url(#paint5_linear_78_2429)"/>
<path d="M63.2273 68.0064C62.3099 68.4968 60.828 68.2166 60.6869 67.4459C60.4046 65.9045 59.205 64.4332 57.0174 63.3121C53.0657 61.2803 46.5736 61.2803 42.5513 63.2421C39.3758 64.7835 38.2468 67.1656 39.023 69.2675C38.6702 70.2484 38.6702 93.0892 39.0936 94C39.5875 92.8089 40.7872 91.6879 42.5513 90.8472C46.503 88.8854 53.0657 88.8854 57.0174 90.9172C59.205 92.0382 60.4046 93.5096 60.6869 95.051C60.828 95.7516 62.3099 96.1019 63.2273 95.6115L75.9292 88.1847V63.6625V63.172V60.5797L63.2273 68.0064Z" fill="url(#paint6_linear_78_2429)"/>
<path opacity="0.5" d="M60.6869 67.4459C60.4046 65.9045 59.205 64.4331 57.0174 63.3121C53.0657 61.2803 46.5736 61.2803 42.5513 63.2421C39.3758 64.7835 38.2468 67.1656 39.023 69.2675C38.6702 70.2484 38.6702 93.0892 39.0936 94C39.5875 92.8089 40.7872 91.6879 42.5513 90.8471C46.503 88.8854 53.0657 88.8854 57.0174 90.9172C59.205 92.0382 60.4046 93.5096 60.6869 95.051V67.4459Z" fill="url(#paint7_linear_78_2429)"/>
<path d="M39.0232 84.7516C38.9527 84.6115 38.9527 84.4714 38.8821 84.3312C38.8115 86.5032 38.8115 90.4968 38.8115 94.4905C38.8115 89.5159 38.8821 85.172 39.0232 84.7516Z" fill="#EFF2FF"/>
<path d="M63.2268 82.5796C62.3095 83.0701 60.8276 82.7898 60.6864 82.0191C60.4042 80.4777 59.2045 79.0064 57.017 77.8854C53.0653 75.8535 46.5732 75.8535 42.5509 77.8153C39.5165 79.3567 38.3169 81.5988 38.952 83.7007C39.3754 82.3695 40.575 81.1083 42.5509 80.1274C46.5026 78.1656 53.0653 78.1656 57.017 80.1975C59.2045 81.3185 60.4042 82.7898 60.6864 84.3312C60.8276 85.0319 62.3095 85.3822 63.2268 84.8917L75.9288 77.465V75.1529L63.2268 82.5796Z" fill="#EFF2FF"/>
<path d="M38.1768 110.045L49.6791 103.389C50.0319 103.178 50.173 102.968 50.1025 102.688V75.2229C50.1025 75.4331 49.9613 75.6433 49.6791 75.7834L38.1768 82.4395V110.045Z" fill="url(#paint8_linear_78_2429)"/>
<path d="M38.1764 82.4395L49.6787 75.7834C50.5961 75.293 50.0316 74.3822 48.7614 74.3121C46.2916 74.172 43.9629 73.5414 42.0576 72.4904C37.5413 69.8981 37.753 65.6943 42.6221 63.3121C46.5738 61.3503 53.1365 61.3503 57.0882 63.3822C59.2758 64.5032 60.4754 65.9745 60.7577 67.5159C60.8988 68.2166 62.3807 68.5669 63.298 68.0764L76 60.6497L62.8041 53.2229C61.675 52.5924 62.3807 51.4013 64.0037 51.3312C66.6147 51.2611 69.0845 50.6306 70.9898 49.4395C74.6592 47.1975 74.6592 43.5541 70.9192 41.242C66.8969 38.7197 60.052 38.6497 55.818 41.1019C53.9127 42.1529 52.9248 43.5541 52.7837 44.9554C52.7131 45.8662 50.6667 46.2866 49.467 45.6561L37.8236 39L0 60.8599L38.1764 82.4395Z" fill="#FBB355"/>
<path d="M70.9903 48.5988C69.085 49.7898 66.5446 50.4204 64.0042 50.4905C62.6634 50.5605 61.8872 51.3312 62.3812 52.0319C62.6634 51.6816 63.228 51.4013 64.0042 51.4013C66.6152 51.3312 69.085 50.7007 70.9903 49.5096C72.9661 48.2484 73.8835 46.637 73.6718 45.0255C73.6012 46.2867 72.6839 47.5478 70.9903 48.5988Z" fill="#FCBE45"/>
<path d="M63.228 67.1657C62.3106 67.6561 60.8287 67.3759 60.6876 66.6052C60.4053 65.0638 59.2057 63.5924 57.0181 62.4714C53.0664 60.4396 46.5743 60.4396 42.552 62.4013C39.7999 63.7326 38.5297 65.6943 38.812 67.5861C38.9531 65.9746 40.2233 64.4332 42.552 63.2421C46.5037 61.2803 53.0664 61.2803 57.0181 63.3122C59.2057 64.4332 60.4053 65.9045 60.6876 67.4459C60.8287 68.1466 62.3106 68.4969 63.228 68.0064L75.9299 60.5797L75.1537 60.1593L63.228 67.1657Z" fill="#FCBE45"/>
<path d="M49.6787 74.9427L38.1764 81.5988L0.77623 60.4395L0 60.8599L38.1764 82.4395L49.6787 75.7835C50.1727 75.5032 50.2433 75.0828 49.8904 74.7325C49.8199 74.8026 49.7493 74.8726 49.6787 74.9427Z" fill="#FCBE45"/>
<path d="M38.1764 82.4395V110.045L0 88.465V60.8599L38.1764 82.4395Z" fill="url(#paint9_linear_78_2429)"/>
<path d="M49.6791 92.5987C49.9613 92.4586 50.1025 92.2484 50.1025 92.0382V89.7261C50.1025 89.9363 49.9613 90.1465 49.6791 90.2866L38.1768 96.9426V99.2547L49.6791 92.5987Z" fill="#EFF2FF"/>
<path d="M0 75.4331V77.6751L38.1764 99.2548V97.0127L0 75.4331Z" fill="#EFF2FF"/>
<defs>
<linearGradient id="paint0_linear_78_2429" x1="136.566" y1="20.2487" x2="136.566" y2="54.3555" gradientUnits="userSpaceOnUse">
<stop stop-color="#FDC043"/>
<stop offset="1" stop-color="#E543E8"/>
</linearGradient>
<linearGradient id="paint1_linear_78_2429" x1="85.3304" y1="20.6795" x2="85.3304" y2="56.0416" gradientUnits="userSpaceOnUse">
<stop stop-color="#FDC043"/>
<stop offset="1" stop-color="#E543E8"/>
</linearGradient>
<linearGradient id="paint2_linear_78_2429" x1="92.5938" y1="21.1709" x2="92.5938" y2="55.289" gradientUnits="userSpaceOnUse">
<stop stop-color="#FDC043"/>
<stop offset="1" stop-color="#E543E8"/>
</linearGradient>
<linearGradient id="paint3_linear_78_2429" x1="98.6454" y1="35.2557" x2="98.6454" y2="70.5114" gradientUnits="userSpaceOnUse">
<stop stop-color="#FDC043"/>
<stop offset="1" stop-color="#E543E8"/>
</linearGradient>
<linearGradient id="paint4_linear_78_2429" x1="123.428" y1="34.7318" x2="123.428" y2="70.5114" gradientUnits="userSpaceOnUse">
<stop stop-color="#FDC043"/>
<stop offset="1" stop-color="#E543E8"/>
</linearGradient>
<linearGradient id="paint5_linear_78_2429" x1="68.1032" y1="45.0955" x2="68.1032" y2="78.9363" gradientUnits="userSpaceOnUse">
<stop stop-color="#FDC043"/>
<stop offset="1" stop-color="#E543E8"/>
</linearGradient>
<linearGradient id="paint6_linear_78_2429" x1="57.3479" y1="60.5797" x2="57.3479" y2="95.8401" gradientUnits="userSpaceOnUse">
<stop stop-color="#FDC043"/>
<stop offset="1" stop-color="#E543E8"/>
</linearGradient>
<linearGradient id="paint7_linear_78_2429" x1="49.7267" y1="61.7794" x2="49.7267" y2="95.051" gradientUnits="userSpaceOnUse">
<stop stop-color="#FDC043"/>
<stop offset="1" stop-color="#E543E8"/>
</linearGradient>
<linearGradient id="paint8_linear_78_2429" x1="44.1484" y1="75.2229" x2="44.1484" y2="110.045" gradientUnits="userSpaceOnUse">
<stop stop-color="#FDC043"/>
<stop offset="1" stop-color="#E543E8"/>
</linearGradient>
<linearGradient id="paint9_linear_78_2429" x1="19.0882" y1="60.8599" x2="19.0882" y2="110.045" gradientUnits="userSpaceOnUse">
<stop stop-color="#FDC043"/>
<stop offset="1" stop-color="#E543E8"/>
</linearGradient>
</defs>
</svg>
