<svg width="211" height="146" viewBox="0 0 211 146" fill="none" xmlns="http://www.w3.org/2000/svg">
<path d="M142.928 20.2487L130.691 27.2854C129.546 27.9317 130.262 29.1523 131.908 29.2241H131.979L130.691 29.9422C129.546 30.5884 130.262 31.8091 131.908 31.8809C132.194 31.8809 132.48 54.2837 132.766 54.3555L142.928 48.5394H143L142.928 20.2487Z" fill="url(#paint0_linear_78_957)"/>
<path d="M131.907 50.4781L131.979 50.4063C131.979 50.4063 131.907 50.4063 131.907 50.4781C131.907 50.4063 131.907 50.4063 131.907 50.4781Z" fill="#EB4680"/>
<path d="M142.928 38.7741L130.691 45.7391C129.546 46.3853 130.261 47.606 131.907 47.6778H131.979L130.691 48.3958C130.333 48.6112 130.118 48.8985 130.118 49.1139C130.118 48.8266 130.333 48.6112 130.691 48.3958L142.928 41.359H143L142.928 38.7741Z" fill="#EFF2FF"/>
<path d="M100.992 51.627C102.137 52.4168 102.925 53.3503 103.354 54.3555C103.712 53.4221 103.783 29.9422 103.426 29.0088C104.07 26.9982 103.282 24.8441 100.992 23.3362C96.6987 20.5359 89.3277 20.4641 84.8192 23.049C82.9586 24.1261 81.8851 25.5622 81.6704 26.9982C81.5273 27.7163 80.0245 28.0753 79.0942 27.5727L67 20.6795V48.9702L79.0226 55.7916C79.9529 56.2942 81.4557 56.007 81.5989 55.2172C81.8136 53.7811 82.887 52.4168 84.7476 51.2679C89.2561 48.7548 96.6271 48.8984 100.992 51.627Z" fill="url(#paint1_linear_78_957)"/>
<path opacity="0.5" d="M81.5986 55.289C81.8133 53.8529 82.8868 52.4886 84.7474 51.3397C89.2559 48.7548 96.6269 48.8266 100.921 51.627C102.066 52.4168 102.853 53.3503 103.282 54.3555C103.64 53.4221 103.712 29.9422 103.354 29.0087C103.998 26.9982 103.211 24.8441 100.921 23.3362C96.6269 20.5359 89.2559 20.4641 84.7474 23.049C82.8868 24.1261 81.8133 25.5622 81.5986 26.9982V55.289Z" fill="url(#paint2_linear_78_957)"/>
<path d="M81.5989 48.1804C81.8136 46.7443 82.887 45.38 84.7476 44.2312C89.2561 41.6462 96.6271 41.718 100.921 44.5184C102.209 45.38 102.996 46.4571 103.354 47.6059C103.354 47.5341 103.354 47.5341 103.354 47.4623C103.998 45.4518 103.211 43.2977 100.921 41.7898C96.6271 38.9895 89.2561 38.9177 84.7476 41.5026C82.887 42.5797 81.8136 44.0158 81.5989 45.4518C81.4557 46.1699 79.9529 46.5289 79.0226 46.0263L67 39.2049V41.9334L79.0226 48.7548C79.9529 49.2574 81.4557 48.8984 81.5989 48.1804Z" fill="#EFF2FF"/>
<path d="M104.928 42.2207L92.8342 35.5429C92.6911 35.4711 92.548 35.3275 92.4764 35.2557V62.9002C92.2617 63.1874 92.3333 63.5464 92.8342 63.8336L104.928 70.5114V42.2207Z" fill="url(#paint3_linear_78_957)"/>
<path d="M104.929 70.5114L117.309 63.331C118.454 62.6848 120.529 63.1156 120.601 64.049C120.744 65.5569 121.889 67.0648 124.036 68.2137C128.044 70.3678 134.484 70.3678 138.492 68.2137C140.639 67.0648 141.784 65.4851 141.855 63.9054H141.927V35.6147H141.855C141.784 37.1944 140.639 38.7023 138.492 39.923C134.484 42.0771 128.044 42.0771 124.036 39.923C121.961 38.7741 120.816 37.338 120.601 35.7583C120.458 34.8249 118.454 34.3941 117.309 35.0403L104.929 42.2207V70.5114Z" fill="url(#paint4_linear_78_957)"/>
<path d="M92.5478 81.4256C92.4046 81.641 92.4046 81.8564 92.5478 82V81.4256Z" fill="#EB4680"/>
<path d="M92.8344 54.3555C92.6913 54.2837 92.5481 54.1401 92.4766 54.0683V56.4378C92.5481 56.5814 92.6197 56.6532 92.8344 56.725L104.929 63.4028V61.0333L92.8344 54.3555Z" fill="#EFF2FF"/>
<path d="M141.855 54.1401C141.784 55.7198 140.639 57.5867 138.492 58.8074C134.484 60.9615 128.044 60.9615 124.036 58.8074C121.961 57.6585 120.816 56.2224 120.601 54.6427C120.458 53.7093 118.454 53.2785 117.309 53.9247L104.929 61.0333V63.4028L117.309 56.2224C118.454 55.5762 120.529 56.007 120.601 56.9405C120.744 58.4483 121.889 59.9562 124.036 61.1051C128.044 63.2592 134.484 63.2592 138.492 61.1051C140.639 59.9562 141.784 58.3765 141.855 56.7968H141.927V54.4273L141.855 54.1401Z" fill="#EFF2FF"/>
<path d="M84.8192 23.049C89.3277 20.4641 96.6987 20.5359 100.992 23.3363C104.499 25.5622 104.571 29.5832 101.064 31.8809C99.1318 33.1734 96.484 33.8914 93.8362 34.035C92.548 34.1068 91.9755 34.9685 92.9058 35.5429L104.928 42.2207L117.309 35.0403C118.454 34.394 120.529 34.8249 120.601 35.7583C120.744 37.2662 121.889 38.7741 124.036 39.9229C128.043 42.0771 134.484 42.0771 138.492 39.9229C142.928 37.5534 143 33.5324 138.778 31.0193C136.846 29.9422 134.412 29.296 131.908 29.2242C130.262 29.1524 129.546 27.9317 130.691 27.2855L142.928 20.2487L108.936 1.07706C106.431 -0.359019 103.426 -0.359019 100.921 1.07706L67 20.6795L79.0226 27.5009C79.9529 28.0035 81.4557 27.7163 81.5989 26.9264C81.8136 25.5622 82.887 24.1261 84.8192 23.049Z" fill="#FBB355"/>
<path d="M100.992 23.3363C102.567 24.4133 103.497 25.8494 103.569 27.2855C103.783 25.5622 102.853 23.7671 100.921 22.5464C96.6271 19.7461 89.2561 19.6743 84.7476 22.2592C82.887 23.3363 81.8136 24.7723 81.5273 26.2084C81.3842 26.9264 79.8814 27.2855 78.951 26.7828L67.7156 20.3205L67 20.7513L79.0226 27.5727C79.9529 28.0753 81.4557 27.7881 81.5989 26.9983C81.8136 25.5622 82.887 24.1979 84.8192 23.049C89.2561 20.4641 96.6271 20.6077 100.992 23.3363Z" fill="#FBB355"/>
<path d="M138.492 39.0613C134.485 41.2154 128.044 41.2154 124.036 39.0613C121.961 37.9125 120.816 36.4764 120.601 34.8967C120.458 33.9633 118.454 33.5324 117.309 34.1787L104.929 41.359L92.8349 34.6813C92.7633 34.6095 92.6202 34.5377 92.6202 34.4659C92.3339 34.7531 92.3339 35.1839 92.8349 35.4711L104.929 42.2207L117.309 35.0403C118.454 34.3941 120.53 34.8249 120.601 35.7583C120.744 37.2662 121.889 38.7741 124.036 39.923C128.044 42.0771 134.485 42.0771 138.492 39.923C140.997 38.6305 142.07 36.7636 141.856 34.9685C141.712 36.4764 140.567 37.9843 138.492 39.0613Z" fill="#FBB355"/>
<path d="M130.691 26.4238C130.118 26.7828 129.975 27.2855 130.261 27.6445C130.333 27.5009 130.476 27.3573 130.691 27.2855L142.928 20.2487L142.212 19.8179L130.691 26.4238Z" fill="#FBB355"/>
<path d="M64.9212 78.9363C67.1793 78.7261 69.3668 78.0955 71.0604 77.1146C73.0363 75.9235 73.9537 74.3121 73.8125 72.7006H73.8831V48.1783V47.6879V45.0955H73.8125C73.9537 46.6369 73.0363 48.2484 71.0604 49.4395C69.1551 50.6306 66.6148 51.2611 64.0744 51.3312C62.4513 51.4013 61.7457 52.5223 62.8747 53.2229L64.2155 53.9936C64.1449 53.9936 64.1449 53.9936 64.0744 53.9936C62.3808 54.0637 64.9212 78.9363 64.9212 78.9363ZM73.742 48.1783C73.742 48.2484 73.742 48.2484 73.742 48.3185C73.742 48.2484 73.742 48.2484 73.742 48.1783Z" fill="url(#paint5_linear_78_957)"/>
<path d="M63.2273 68.0064C62.3099 68.4968 60.828 68.2166 60.6869 67.4459C60.4046 65.9045 59.205 64.4332 57.0174 63.3121C53.0657 61.2803 46.5736 61.2803 42.5513 63.2421C39.3758 64.7835 38.2468 67.1656 39.023 69.2675C38.6702 70.2484 38.6702 93.0892 39.0936 94C39.5875 92.8089 40.7872 91.6879 42.5513 90.8472C46.503 88.8854 53.0657 88.8854 57.0174 90.9172C59.205 92.0382 60.4046 93.5096 60.6869 95.051C60.828 95.7516 62.3099 96.1019 63.2273 95.6115L75.9292 88.1847V63.6625V63.172V60.5797L63.2273 68.0064Z" fill="url(#paint6_linear_78_957)"/>
<path opacity="0.5" d="M60.6869 67.4459C60.4046 65.9045 59.205 64.4331 57.0174 63.3121C53.0657 61.2803 46.5736 61.2803 42.5513 63.2421C39.3758 64.7835 38.2468 67.1656 39.023 69.2675C38.6702 70.2484 38.6702 93.0892 39.0936 94C39.5875 92.8089 40.7872 91.6879 42.5513 90.8471C46.503 88.8854 53.0657 88.8854 57.0174 90.9172C59.205 92.0382 60.4046 93.5096 60.6869 95.051V67.4459Z" fill="url(#paint7_linear_78_957)"/>
<path d="M39.0232 84.7516C38.9527 84.6115 38.9527 84.4714 38.8821 84.3312C38.8115 86.5032 38.8115 90.4968 38.8115 94.4905C38.8115 89.5159 38.8821 85.172 39.0232 84.7516Z" fill="#EFF2FF"/>
<path d="M63.2268 82.5796C62.3095 83.0701 60.8276 82.7898 60.6864 82.0191C60.4042 80.4777 59.2045 79.0064 57.017 77.8854C53.0653 75.8535 46.5732 75.8535 42.5509 77.8153C39.5165 79.3567 38.3169 81.5988 38.952 83.7007C39.3754 82.3695 40.575 81.1083 42.5509 80.1274C46.5026 78.1656 53.0653 78.1656 57.017 80.1975C59.2045 81.3185 60.4042 82.7898 60.6864 84.3312C60.8276 85.0319 62.3095 85.3822 63.2268 84.8917L75.9288 77.465V75.1529L63.2268 82.5796Z" fill="#EFF2FF"/>
<path d="M38.1768 110.045L49.6791 103.389C50.0319 103.178 50.173 102.968 50.1025 102.688V75.2229C50.1025 75.4331 49.9613 75.6433 49.6791 75.7834L38.1768 82.4395V110.045Z" fill="url(#paint8_linear_78_957)"/>
<path d="M38.1764 82.4395L49.6787 75.7834C50.5961 75.293 50.0316 74.3822 48.7614 74.3121C46.2916 74.172 43.9629 73.5414 42.0576 72.4904C37.5413 69.8981 37.753 65.6943 42.6221 63.3121C46.5738 61.3503 53.1365 61.3503 57.0882 63.3822C59.2758 64.5032 60.4754 65.9745 60.7577 67.5159C60.8988 68.2166 62.3807 68.5669 63.298 68.0764L76 60.6497L62.8041 53.2229C61.675 52.5924 62.3807 51.4013 64.0037 51.3312C66.6147 51.2611 69.0845 50.6306 70.9898 49.4395C74.6592 47.1975 74.6592 43.5541 70.9192 41.242C66.8969 38.7197 60.052 38.6497 55.818 41.1019C53.9127 42.1529 52.9248 43.5541 52.7837 44.9554C52.7131 45.8662 50.6667 46.2866 49.467 45.6561L37.8236 39L0 60.8599L38.1764 82.4395Z" fill="#FBB355"/>
<path d="M70.9903 48.5988C69.085 49.7898 66.5446 50.4204 64.0042 50.4905C62.6634 50.5605 61.8872 51.3312 62.3812 52.0319C62.6634 51.6816 63.228 51.4013 64.0042 51.4013C66.6152 51.3312 69.085 50.7007 70.9903 49.5096C72.9661 48.2484 73.8835 46.637 73.6718 45.0255C73.6012 46.2867 72.6839 47.5478 70.9903 48.5988Z" fill="#FCBE45"/>
<path d="M63.228 67.1657C62.3106 67.6561 60.8287 67.3759 60.6876 66.6052C60.4053 65.0638 59.2057 63.5924 57.0181 62.4714C53.0664 60.4396 46.5743 60.4396 42.552 62.4013C39.7999 63.7326 38.5297 65.6943 38.812 67.5861C38.9531 65.9746 40.2233 64.4332 42.552 63.2421C46.5037 61.2803 53.0664 61.2803 57.0181 63.3122C59.2057 64.4332 60.4053 65.9045 60.6876 67.4459C60.8287 68.1466 62.3106 68.4969 63.228 68.0064L75.9299 60.5797L75.1537 60.1593L63.228 67.1657Z" fill="#FCBE45"/>
<path d="M49.6787 74.9427L38.1764 81.5988L0.77623 60.4395L0 60.8599L38.1764 82.4395L49.6787 75.7835C50.1727 75.5032 50.2433 75.0828 49.8904 74.7325C49.8199 74.8026 49.7493 74.8726 49.6787 74.9427Z" fill="#FCBE45"/>
<path d="M38.1764 82.4395V110.045L0 88.465V60.8599L38.1764 82.4395Z" fill="url(#paint9_linear_78_957)"/>
<path d="M49.6791 92.5987C49.9613 92.4586 50.1025 92.2484 50.1025 92.0382V89.7261C50.1025 89.9363 49.9613 90.1465 49.6791 90.2866L38.1768 96.9426V99.2547L49.6791 92.5987Z" fill="#EFF2FF"/>
<path d="M0 75.4331V77.6751L38.1764 99.2548V97.0127L0 75.4331Z" fill="#EFF2FF"/>
<g clip-path="url(#clip0_78_957)">
<path d="M147.679 65.1203L146.318 64.337C146.389 64.337 146.389 64.337 146.461 64.337C148.108 64.2658 148.825 63.1263 147.679 62.4142L135 55.2928V83.351L145.53 89.333C145.816 89.333 146.103 67.0431 146.461 67.0431C148.108 66.9719 148.825 65.8325 147.679 65.1203Z" fill="url(#paint10_linear_78_957)"/>
<path d="M147.679 84.5617L146.318 83.7784C146.389 83.7784 146.389 83.7784 146.461 83.7784C148.108 83.7072 148.825 82.5677 147.679 82.4253L135 75.2327V74.663V77.5116L147.679 84.7041C148.037 84.9178 148.252 85.1314 148.252 85.4163C148.252 85.1314 148.108 84.8466 147.679 84.5617Z" fill="#EFF2FF"/>
<path d="M168.38 44.1123C166.446 43.0441 164.082 42.4032 161.575 42.2608C160.715 42.1895 160.214 41.8335 160.214 41.4062V69.4644C160.214 69.8917 160.787 70.2477 161.575 70.3189C164.082 70.4614 166.446 71.1023 168.38 72.1705C169.884 73.025 170.815 74.022 171.317 75.1615C171.746 74.2357 171.746 50.9488 171.388 50.023C172.176 47.9578 171.173 45.679 168.38 44.1123Z" fill="url(#paint11_linear_78_957)"/>
<path d="M211 55.6489L173.179 76.9418V105L211 83.7071V55.6489Z" fill="url(#paint12_linear_78_957)"/>
<path d="M161.145 70.2477C159.999 69.6068 157.921 69.9629 157.778 70.9599C157.635 72.3841 156.632 73.8084 154.698 74.8766C150.472 77.2979 143.452 77.2266 139.297 74.663C137.435 73.5235 136.504 72.0281 136.504 70.6038V98.662C136.576 100.157 137.507 101.582 139.297 102.721C143.452 105.285 150.4 105.356 154.698 102.935C156.632 101.867 157.635 100.442 157.778 99.018C157.85 98.0923 159.927 97.665 161.145 98.3059L173.179 105V76.9418L161.145 70.2477Z" fill="url(#paint13_linear_78_957)"/>
<path opacity="0.5" d="M157.85 70.8887C157.707 72.3129 156.704 73.7372 154.77 74.8054C150.544 77.2267 143.524 77.1555 139.37 74.5918C137.507 73.4524 136.576 71.9569 136.576 70.5326V98.5908C136.648 100.086 137.579 101.511 139.37 102.65C143.524 105.214 150.472 105.285 154.77 102.864C156.704 101.795 157.707 100.371 157.85 98.9468V70.8887Z" fill="url(#paint14_linear_78_957)"/>
<path d="M173.179 96.9529L161.145 90.2588C159.999 89.6178 157.921 89.9739 157.778 90.9709C157.635 92.3952 156.632 93.8195 154.698 94.8877C150.472 97.3089 143.452 97.2377 139.297 94.674C137.435 93.5346 136.504 92.0391 136.504 90.6148V92.8937C136.576 94.3892 137.507 95.8134 139.297 96.9529C143.452 99.5165 150.4 99.5878 154.698 97.1665C156.632 96.0983 157.635 94.674 157.778 93.2497C157.85 92.324 159.927 91.8967 161.145 92.5376L173.179 99.2317L211 77.9388V75.66L173.179 96.9529Z" fill="#EFF2FF"/>
<path d="M211 55.6489L172.821 34L160.644 40.7653C159.713 41.2638 160.286 42.1896 161.575 42.2608C164.082 42.4032 166.446 43.0441 168.38 44.1123C172.964 46.7472 172.749 51.0201 167.807 53.4413C163.795 55.4353 157.134 55.4353 153.123 53.3701C150.902 52.2307 149.684 50.7352 149.398 49.1685C149.254 48.4564 147.75 48.1003 146.819 48.5988L135 55.2929L147.679 62.4855C148.825 63.1264 148.108 64.337 146.461 64.4082C143.811 64.4794 141.303 65.1204 139.369 66.331C135.645 68.6098 135.645 72.3129 139.441 74.663C143.596 77.2267 150.544 77.2979 154.842 74.8766C156.776 73.8084 157.779 72.3842 157.922 70.9599C157.993 70.0341 160.071 69.6068 161.288 70.2477L173.322 76.9418L211 55.6489Z" fill="#FBB355"/>
<path d="M161.575 42.2608C164.082 42.4032 166.446 43.0441 168.38 44.1123C170.386 45.2518 171.46 46.676 171.603 48.1715C171.818 46.3912 170.744 44.6108 168.38 43.2578C166.446 42.1896 164.082 41.5487 161.575 41.4062C161.002 41.4062 160.644 41.1926 160.357 40.9789C159.856 41.4774 160.429 42.1896 161.575 42.2608Z" fill="#FCBE45"/>
<path d="M173.179 76.0873L161.145 69.3932C159.999 68.7523 157.921 69.1083 157.778 70.1053C157.635 71.5296 156.632 72.9539 154.698 74.0221C150.472 76.4433 143.452 76.3721 139.297 73.8084C137.578 72.7402 136.647 71.3872 136.504 70.0341C136.289 71.672 137.22 73.3812 139.297 74.663C143.452 77.2267 150.4 77.2979 154.698 74.8766C156.632 73.8084 157.635 72.3842 157.778 70.9599C157.85 70.0341 159.927 69.6068 161.145 70.2478L173.179 76.9418L211 55.649L210.212 55.2217L173.179 76.0873Z" fill="#FCBE45"/>
<path d="M148.108 62.8415C148.395 62.4855 148.323 61.987 147.679 61.6309L135.788 54.8656L135 55.2929L147.679 62.4855C147.893 62.6279 148.037 62.6991 148.108 62.8415Z" fill="#FCBE45"/>
</g>
<path d="M73.6587 88.5908H73.5858L74.8974 87.8623C76.0633 87.2066 75.3346 85.9681 73.6587 85.8952C71.1084 85.8224 68.6309 85.1667 66.6635 84.0739C64.769 82.981 63.7488 81.6697 63.5302 80.2126V82.1797C63.4574 82.5439 63.4574 82.981 63.5302 83.3453V107.606C63.2388 109.427 64.2589 111.321 66.6635 112.706C68.4123 113.726 70.5254 114.308 72.7114 114.454L74.8246 90.485C76.0633 89.8294 75.3346 88.6637 73.6587 88.5908Z" fill="url(#paint15_linear_78_957)"/>
<path d="M111.477 81.5968C108.781 81.7425 106.085 82.4711 104.117 83.7824C101.786 85.3124 100.984 87.498 101.64 89.4651C101.276 90.485 101.348 114.236 101.713 115.183C102.15 114.163 102.879 113.288 104.045 112.487C106.012 111.176 108.708 110.447 111.404 110.301C112.278 110.229 112.789 109.864 112.861 109.427V80.7954C112.861 81.2325 112.278 81.524 111.477 81.5968Z" fill="url(#paint16_linear_78_957)"/>
<path d="M99.5264 117.295L138 95.1477L126.56 88.2265C125.613 87.7166 124.082 88.008 123.937 88.8094C123.718 90.2665 122.625 91.6507 120.658 92.8164C116.067 95.4391 108.416 95.3663 104.044 92.4521C100.474 90.0479 100.474 86.1866 104.044 83.8553C106.012 82.5439 108.708 81.8154 111.404 81.6697C112.715 81.5968 113.298 80.7226 112.351 80.1397L100.474 73L88.5235 79.9212C87.3576 80.5768 85.2445 80.1397 85.1716 79.1926C85.0259 77.6627 83.86 76.1327 81.674 74.9671C77.5935 72.7814 71.0355 72.7814 66.9549 74.9671C62.4372 77.3713 62.3643 81.524 66.6635 84.001C68.6309 85.0938 71.1083 85.7495 73.6587 85.8224C75.3346 85.8952 76.0633 87.1337 74.8974 87.7894L62 95.1477L99.5264 117.295Z" fill="#FBB355"/>
<path d="M66.6636 84.001C68.631 85.0938 71.1085 85.7495 73.6588 85.8223C74.4603 85.8223 75.0433 86.1138 75.3347 86.478C75.8448 85.8223 75.1161 84.9481 73.6588 84.8752C71.1085 84.8024 68.631 84.1467 66.6636 83.0539C64.7691 81.9611 63.6761 80.504 63.5303 79.1198C63.3117 80.8683 64.4047 82.6896 66.6636 84.001Z" fill="#FCBE45"/>
<path d="M111.476 80.7225C108.78 80.8682 106.084 81.5968 104.117 82.9082C102.15 84.2195 101.275 85.968 101.421 87.6437C101.567 86.2595 102.441 84.8752 104.117 83.7824C106.084 82.471 108.78 81.7425 111.476 81.5968C112.642 81.5239 113.298 80.7954 112.642 80.2854C112.424 80.504 112.059 80.6497 111.476 80.7225Z" fill="#FCBE45"/>
<path d="M138 95.1477L137.198 94.7106L99.5264 116.421L62.8015 94.7106L62 95.1477L99.5264 117.295L138 95.1477Z" fill="#FCBE45"/>
<path d="M138 95.1477V123.852L99.5264 146V117.295L138 95.1477Z" fill="url(#paint17_linear_78_957)"/>
<path d="M99.5264 117.295V146L62 123.852V95.1477L99.5264 117.295Z" fill="url(#paint18_linear_78_957)"/>
<path d="M99.5264 133.833L62 111.686V114.09L99.5264 136.238L138 114.09V111.686L99.5264 133.833Z" fill="#EFF2FF"/>
<defs>
<linearGradient id="paint0_linear_78_957" x1="136.566" y1="20.2487" x2="136.566" y2="54.3555" gradientUnits="userSpaceOnUse">
<stop stop-color="#FDC043"/>
<stop offset="1" stop-color="#E543E8"/>
</linearGradient>
<linearGradient id="paint1_linear_78_957" x1="85.3304" y1="20.6795" x2="85.3304" y2="56.0416" gradientUnits="userSpaceOnUse">
<stop stop-color="#FDC043"/>
<stop offset="1" stop-color="#E543E8"/>
</linearGradient>
<linearGradient id="paint2_linear_78_957" x1="92.5938" y1="21.1709" x2="92.5938" y2="55.289" gradientUnits="userSpaceOnUse">
<stop stop-color="#FDC043"/>
<stop offset="1" stop-color="#E543E8"/>
</linearGradient>
<linearGradient id="paint3_linear_78_957" x1="98.6454" y1="35.2557" x2="98.6454" y2="70.5114" gradientUnits="userSpaceOnUse">
<stop stop-color="#FDC043"/>
<stop offset="1" stop-color="#E543E8"/>
</linearGradient>
<linearGradient id="paint4_linear_78_957" x1="123.428" y1="34.7318" x2="123.428" y2="70.5114" gradientUnits="userSpaceOnUse">
<stop stop-color="#FDC043"/>
<stop offset="1" stop-color="#E543E8"/>
</linearGradient>
<linearGradient id="paint5_linear_78_957" x1="68.1032" y1="45.0955" x2="68.1032" y2="78.9363" gradientUnits="userSpaceOnUse">
<stop stop-color="#FDC043"/>
<stop offset="1" stop-color="#E543E8"/>
</linearGradient>
<linearGradient id="paint6_linear_78_957" x1="57.3479" y1="60.5797" x2="57.3479" y2="95.8401" gradientUnits="userSpaceOnUse">
<stop stop-color="#FDC043"/>
<stop offset="1" stop-color="#E543E8"/>
</linearGradient>
<linearGradient id="paint7_linear_78_957" x1="49.7267" y1="61.7794" x2="49.7267" y2="95.051" gradientUnits="userSpaceOnUse">
<stop stop-color="#FDC043"/>
<stop offset="1" stop-color="#E543E8"/>
</linearGradient>
<linearGradient id="paint8_linear_78_957" x1="44.1484" y1="75.2229" x2="44.1484" y2="110.045" gradientUnits="userSpaceOnUse">
<stop stop-color="#FDC043"/>
<stop offset="1" stop-color="#E543E8"/>
</linearGradient>
<linearGradient id="paint9_linear_78_957" x1="19.0882" y1="60.8599" x2="19.0882" y2="110.045" gradientUnits="userSpaceOnUse">
<stop stop-color="#FDC043"/>
<stop offset="1" stop-color="#E543E8"/>
</linearGradient>
<linearGradient id="paint10_linear_78_957" x1="141.619" y1="55.2928" x2="141.619" y2="89.333" gradientUnits="userSpaceOnUse">
<stop stop-color="#FDC043"/>
<stop offset="1" stop-color="#E543E8"/>
</linearGradient>
<linearGradient id="paint11_linear_78_957" x1="165.931" y1="41.4062" x2="165.931" y2="75.1615" gradientUnits="userSpaceOnUse">
<stop stop-color="#FDC043"/>
<stop offset="1" stop-color="#E543E8"/>
</linearGradient>
<linearGradient id="paint12_linear_78_957" x1="192.089" y1="55.6489" x2="192.089" y2="105" gradientUnits="userSpaceOnUse">
<stop stop-color="#FDC043"/>
<stop offset="1" stop-color="#E543E8"/>
</linearGradient>
<linearGradient id="paint13_linear_78_957" x1="154.841" y1="69.9257" x2="154.841" y2="105" gradientUnits="userSpaceOnUse">
<stop stop-color="#FDC043"/>
<stop offset="1" stop-color="#E543E8"/>
</linearGradient>
<linearGradient id="paint14_linear_78_957" x1="147.213" y1="70.5326" x2="147.213" y2="104.628" gradientUnits="userSpaceOnUse">
<stop stop-color="#FDC043"/>
<stop offset="1" stop-color="#E543E8"/>
</linearGradient>
<linearGradient id="paint15_linear_78_957" x1="69.4713" y1="80.2126" x2="69.4713" y2="114.454" gradientUnits="userSpaceOnUse">
<stop stop-color="#FDC043"/>
<stop offset="1" stop-color="#E543E8"/>
</linearGradient>
<linearGradient id="paint16_linear_78_957" x1="107.131" y1="80.7954" x2="107.131" y2="115.183" gradientUnits="userSpaceOnUse">
<stop stop-color="#FDC043"/>
<stop offset="1" stop-color="#E543E8"/>
</linearGradient>
<linearGradient id="paint17_linear_78_957" x1="118.763" y1="95.1477" x2="118.763" y2="146" gradientUnits="userSpaceOnUse">
<stop stop-color="#FDC043"/>
<stop offset="1" stop-color="#E543E8"/>
</linearGradient>
<linearGradient id="paint18_linear_78_957" x1="80.7632" y1="95.1477" x2="80.7632" y2="146" gradientUnits="userSpaceOnUse">
<stop stop-color="#FDC043"/>
<stop offset="1" stop-color="#E543E8"/>
</linearGradient>
<clipPath id="clip0_78_957">
<rect width="76" height="71" fill="white" transform="translate(135 34)"/>
</clipPath>
</defs>
</svg>
