<svg width="197" height="197" viewBox="0 0 197 197" fill="none" xmlns="http://www.w3.org/2000/svg">
<path d="M112.421 113.344C113.632 111.473 114.254 109.444 114.254 107.325C114.254 105.188 113.702 103.286 112.599 101.652C111.495 100.017 109.753 98.6371 107.418 97.5643C105.793 96.8256 102.72 95.9395 98.2969 94.9446C98.2474 94.9347 98.198 94.9248 98.1496 94.9051L98.0407 94.8853C93.5984 93.8706 90.8995 92.8856 89.7957 91.8709C88.6238 90.8265 88.0324 89.4677 88.0324 87.8518C88.0324 85.9906 88.8602 84.3945 90.485 83.0841C92.0813 81.8034 94.6217 81.1537 98.0495 81.1537H98.1485C101.389 81.1735 103.891 81.8825 105.585 83.271C106.817 84.2758 107.693 85.6445 108.195 87.3298C108.491 88.3049 109.357 88.9645 110.362 88.9645C110.421 88.9645 110.481 88.9645 110.529 88.9546C111.209 88.9051 111.82 88.5511 112.213 87.9894C112.607 87.4276 112.716 86.7284 112.529 86.0688C112.203 84.9365 111.701 83.8625 111.051 82.8676C109.84 81.0251 108.077 79.5971 105.811 78.6417C103.605 77.7061 101.023 77.2235 98.1476 77.1938H98.1278H97.8222C95.0937 77.1938 92.5817 77.6567 90.3556 78.5823C88.1592 79.4882 86.475 80.8282 85.3316 82.5718C84.1894 84.3154 83.6177 86.216 83.6177 88.2159C83.6177 90.0287 84.0904 91.6929 85.0161 93.1606C85.9417 94.6282 87.3796 95.8792 89.2912 96.8839C90.7885 97.682 93.4479 98.5384 97.2208 99.4453C97.644 99.5443 97.9694 99.6223 98.2553 99.7015C101.476 100.49 103.643 101.09 104.687 101.494C106.49 102.184 107.819 103.051 108.627 104.094C109.445 105.149 109.859 106.39 109.859 107.788C109.859 109.167 109.435 110.447 108.598 111.609C107.76 112.761 106.49 113.678 104.805 114.328C103.16 114.968 101.23 115.293 99.0817 115.293C98.7464 115.293 98.432 115.283 98.1362 115.273C96.0871 115.175 94.1962 114.761 92.5122 114.022C90.5521 113.165 89.0745 112.023 88.1292 110.624C87.5378 109.748 87.0749 108.714 86.7605 107.532C86.4945 106.567 85.6084 105.897 84.5938 105.897C84.5245 105.897 84.4662 105.897 84.397 105.907C83.7473 105.967 83.146 106.301 82.7623 106.833C82.3885 107.355 82.25 108.015 82.3973 108.636C82.7524 110.173 83.3724 111.62 84.2398 112.95C85.6381 115.067 87.5784 116.683 90.031 117.737C92.2473 118.693 94.9856 119.225 98.1573 119.333C98.5409 119.343 98.9257 119.353 99.3192 119.353C102.215 119.353 104.846 118.821 107.15 117.757C109.426 116.713 111.21 115.225 112.421 113.344L112.421 113.344Z" fill="#EFF2FF"/>
<path d="M98.2849 80.7012C97.1427 80.7012 96.2159 79.7755 96.2159 78.6322V74.7218C96.2159 73.5796 97.1416 72.6528 98.2849 72.6528C99.4271 72.6528 100.354 73.5785 100.354 74.7218V78.6322C100.354 79.7656 99.4271 80.7012 98.2849 80.7012Z" fill="#EFF2FF"/>
<path d="M98.2849 123.903C97.1427 123.903 96.2159 122.978 96.2159 121.834V117.924C96.2159 116.782 97.1416 115.855 98.2849 115.855C99.4271 115.855 100.354 116.781 100.354 117.924V121.834C100.354 122.978 99.4271 123.903 98.2849 123.903Z" fill="#EFF2FF"/>
<path d="M98.2849 141.487C92.454 141.487 86.7902 140.345 81.4608 138.089C76.3191 135.912 71.6899 132.799 67.7302 128.831C63.7606 124.861 60.6483 120.241 58.4717 115.1C56.2159 109.771 55.0738 104.108 55.0738 98.2759C55.0738 92.445 56.216 86.7813 58.4717 81.4518C60.6484 76.3101 63.7618 71.6809 67.7302 67.7212C71.6997 63.7517 76.3194 60.6394 81.4608 58.4628C86.7894 56.207 92.4531 55.0648 98.2849 55.0648C104.116 55.0648 109.78 56.207 115.109 58.4628C120.251 60.6395 124.88 63.7528 128.84 67.7212C132.809 71.6908 135.921 76.3104 138.098 81.4518C140.354 86.7804 141.496 92.4442 141.496 98.2759C141.496 104.107 140.354 109.771 138.098 115.1C135.921 120.242 132.808 124.871 128.84 128.831C124.87 132.8 120.25 135.912 115.109 138.089C109.779 140.344 104.116 141.487 98.2849 141.487ZM98.2849 59.2001C76.7337 59.2001 59.2113 76.7334 59.2113 98.2737C59.2113 119.825 76.7446 137.347 98.2849 137.347C119.836 137.347 137.358 119.814 137.358 98.2737C137.358 76.7224 119.835 59.2001 98.2849 59.2001Z" fill="#EFF2FF"/>
<path d="M98.2849 155.719C90.5324 155.719 83.0075 154.202 75.9257 151.207C69.0901 148.312 62.9437 144.175 57.6635 138.895C52.3833 133.615 48.2466 127.478 45.351 120.632C42.3563 113.551 40.8394 106.025 40.8394 98.2733C40.8394 90.5208 42.3565 82.9959 45.351 75.9141C48.2466 69.0784 52.3833 62.932 57.6635 57.6519C62.9437 52.3717 69.0799 48.235 75.9257 45.3492C83.0075 42.3545 90.5335 40.8376 98.2849 40.8376C106.037 40.8376 113.562 42.3547 120.644 45.3492C127.48 48.2448 133.626 52.3816 138.906 57.6617C144.186 62.9419 148.323 69.0782 151.219 75.9239C154.214 83.0058 155.73 90.5317 155.73 98.2831C155.73 106.036 154.213 113.56 151.219 120.642C148.323 127.478 144.186 133.624 138.906 138.905C133.626 144.185 127.49 148.321 120.644 151.217C113.562 154.202 106.037 155.719 98.2849 155.719ZM98.2849 44.9654C68.8925 44.9654 44.9767 68.8812 44.9767 98.2736C44.9767 127.666 68.8925 151.582 98.2849 151.582C127.677 151.582 151.593 127.666 151.593 98.2736C151.593 68.8812 127.677 44.9654 98.2849 44.9654Z" fill="#EFF2FF"/>
<path d="M35.4503 74.839C34.6028 73.3319 35.1447 71.4112 36.6519 70.5639C38.169 69.7163 40.0797 70.2583 40.9271 71.7654C41.7747 73.2726 41.2327 75.1932 39.7255 76.0406C39.2429 76.3165 38.7108 76.4441 38.1887 76.4441C37.0948 76.4452 36.0318 75.8636 35.4502 74.839H35.4503ZM29.7174 63.2948C29.038 61.6986 29.7767 59.8572 31.3719 59.1778C32.9681 58.4984 34.8095 59.2372 35.4889 60.8323C36.1683 62.4286 35.4295 64.27 33.8344 64.9493C33.4309 65.1263 33.0165 65.2055 32.6031 65.2055C31.3928 65.2055 30.2297 64.4865 29.7174 63.2948V63.2948ZM25.5607 50.8647C25.177 49.1707 26.2401 47.4963 27.9341 47.1116C29.6282 46.7279 31.3025 47.791 31.6873 49.485C32.0709 51.1791 31.0079 52.8535 29.3138 53.2382C29.0774 53.2876 28.851 53.3173 28.6245 53.3173C27.1866 53.3074 25.8861 52.3224 25.5606 50.8647L25.5607 50.8647ZM27.4427 40.787C25.7487 40.4034 24.6944 38.7181 25.0792 37.0339C25.4628 35.3398 27.1481 34.2856 28.8323 34.6704C30.5264 35.054 31.5806 36.7393 31.1959 38.4235C30.8606 39.8812 29.5711 40.8662 28.1319 40.8662C27.9154 40.8662 27.679 40.8365 27.4427 40.787L27.4427 40.787ZM70.2002 40.0483C68.6732 39.2205 68.1114 37.3098 68.9392 35.7928C69.767 34.2658 71.6777 33.7041 73.1947 34.5319C74.7217 35.3597 75.2834 37.2703 74.4557 38.7873C73.884 39.8317 72.811 40.422 71.6974 40.422C71.1851 40.433 70.6729 40.3044 70.2001 40.0483H70.2002ZM59.198 34.7991C57.593 34.1494 56.8146 32.3168 57.4643 30.7119C58.114 29.1069 59.9466 28.3285 61.5515 28.9782C63.1564 29.6279 63.9349 31.4605 63.2852 33.0654C62.7927 34.2868 61.6109 35.0255 60.3699 35.0255C59.9763 35.0255 59.5816 34.9464 59.198 34.7991L59.198 34.7991ZM33.0066 29.6959C32.425 28.0612 33.2726 26.2681 34.9073 25.6867C36.542 25.1052 38.3351 25.9527 38.9165 27.5874C39.4981 29.2221 38.6505 31.0152 37.0158 31.5967C36.6706 31.7242 36.3166 31.7836 35.9615 31.7836C34.6709 31.7748 33.4595 30.9766 33.0065 29.6959L33.0066 29.6959ZM47.8111 31.3317C46.1071 31.0162 44.9749 29.3815 45.2893 27.6777C45.6048 25.9737 47.2395 24.8414 48.9433 25.1558C50.6473 25.4713 51.7796 27.106 51.4652 28.8099C51.1892 30.327 49.8689 31.3812 48.3827 31.3812C48.1947 31.3812 47.9979 31.3614 47.8111 31.3317L47.8111 31.3317Z" fill="#EFF2FF"/>
<path d="M147.625 171.389C145.921 171.073 144.789 169.439 145.103 167.735C145.419 166.031 147.053 164.898 148.757 165.213C150.461 165.528 151.593 167.163 151.279 168.867C151.003 170.384 149.683 171.438 148.197 171.438C148.009 171.438 147.822 171.428 147.625 171.389L147.625 171.389ZM157.652 168.956C157.07 167.321 157.918 165.528 159.553 164.947C161.187 164.365 162.981 165.213 163.562 166.847C164.144 168.482 163.296 170.275 161.661 170.857C161.316 170.984 160.962 171.044 160.607 171.044C159.316 171.044 158.105 170.247 157.652 168.956L157.652 168.956ZM135.017 167.567C133.412 166.918 132.633 165.085 133.283 163.48C133.933 161.875 135.765 161.097 137.37 161.747C138.975 162.396 139.754 164.229 139.104 165.834C138.611 167.055 137.43 167.794 136.189 167.794C135.805 167.804 135.41 167.725 135.017 167.567L135.017 167.567ZM123.364 162.012C121.837 161.184 121.275 159.273 122.103 157.756C122.931 156.229 124.841 155.667 126.358 156.495C127.885 157.323 128.447 159.234 127.619 160.751C127.048 161.795 125.975 162.385 124.861 162.385C124.359 162.396 123.846 162.268 123.364 162.012H123.364ZM167.74 161.884C166.045 161.5 164.991 159.815 165.376 158.131C165.76 156.437 167.445 155.383 169.129 155.767C170.823 156.151 171.877 157.836 171.493 159.52C171.157 160.978 169.868 161.963 168.429 161.963C168.202 161.962 167.966 161.932 167.739 161.884L167.74 161.884ZM164.884 147.059C164.5 145.365 165.563 143.691 167.257 143.306C168.951 142.923 170.625 143.986 171.01 145.68C171.394 147.374 170.331 149.048 168.637 149.433C168.4 149.482 168.174 149.512 167.947 149.512C166.508 149.512 165.208 148.527 164.884 147.059L164.884 147.059ZM161.081 135.712C160.402 134.116 161.14 132.275 162.735 131.595C164.332 130.916 166.173 131.655 166.852 133.25C167.532 134.846 166.793 136.687 165.198 137.367C164.795 137.534 164.38 137.623 163.967 137.623C162.745 137.623 161.593 136.904 161.081 135.712V135.712ZM155.644 124.778C154.796 123.271 155.328 121.35 156.845 120.503C158.362 119.655 160.273 120.197 161.12 121.705C161.968 123.212 161.426 125.132 159.919 125.98C159.436 126.256 158.904 126.383 158.382 126.383C157.278 126.384 156.215 125.803 155.644 124.778H155.644Z" fill="#EFF2FF"/>
<path d="M37.0376 171.479C35.3436 171.095 34.2893 169.41 34.6741 167.726C35.0578 166.032 36.743 164.977 38.4272 165.362C40.1213 165.746 41.1755 167.431 40.7908 169.115C40.4555 170.573 39.166 171.558 37.7269 171.558C37.5103 171.557 37.2739 171.528 37.0376 171.479L37.0376 171.479ZM47.124 168.622C46.7404 166.928 47.8034 165.253 49.4975 164.869C51.1915 164.485 52.8659 165.548 53.2506 167.242C53.6343 168.936 52.5712 170.611 50.8772 170.995C50.6408 171.045 50.4144 171.074 50.1879 171.074C48.7489 171.074 47.4483 170.08 47.124 168.622L47.124 168.622ZM59.1903 165.184C58.5109 163.588 59.2496 161.747 60.8448 161.067C62.441 160.388 64.2824 161.127 64.9618 162.722C65.6412 164.318 64.9024 166.159 63.3073 166.839C62.9038 167.006 62.4894 167.095 62.076 167.095C60.8547 167.096 59.7026 166.376 59.1903 165.184V165.184ZM25.7003 161.649C25.1187 160.014 25.9663 158.221 27.601 157.64C29.2357 157.058 31.0288 157.906 31.6103 159.54C32.1918 161.175 31.3442 162.968 29.7095 163.55C29.3643 163.677 29.0103 163.736 28.6553 163.736C27.3647 163.736 26.1532 162.928 25.7003 161.649L25.7003 161.649ZM70.5769 159.895C69.7293 158.378 70.2614 156.468 71.7784 155.62C73.2856 154.773 75.2062 155.305 76.0536 156.822C76.9012 158.339 76.3592 160.25 74.8521 161.097C74.3695 161.373 73.8374 161.5 73.3152 161.5C72.2214 161.5 71.1572 160.93 70.5768 159.895H70.5769ZM27.69 151.267C25.986 150.951 24.8537 149.317 25.1681 147.613C25.4836 145.909 27.1183 144.777 28.8222 145.091C30.5262 145.406 31.6584 147.041 31.3441 148.745C31.0681 150.262 29.7478 151.316 28.2616 151.316C28.0736 151.326 27.8768 151.306 27.6899 151.267H27.69ZM30.7229 139.092C29.1179 138.442 28.3396 136.609 28.9893 135.004C29.639 133.399 31.4716 132.621 33.0765 133.271C34.6815 133.921 35.4598 135.753 34.8101 137.358C34.3176 138.579 33.1359 139.318 31.8948 139.318C31.5013 139.328 31.1077 139.25 30.7229 139.092L30.7229 139.092ZM35.8061 127.617C34.2791 126.789 33.7174 124.879 34.5452 123.361C35.373 121.835 37.2836 121.273 38.8006 122.101C40.3276 122.928 40.8894 124.839 40.0616 126.356C39.4899 127.4 38.417 127.991 37.3034 127.991C36.7911 127.991 36.2788 127.873 35.8061 127.617H35.8061Z" fill="#EFF2FF"/>
<path d="M157.768 74.4478C156.241 73.62 155.679 71.7094 156.507 70.1923C157.335 68.6654 159.245 68.1036 160.762 68.9314C162.289 69.7592 162.851 71.6698 162.023 73.1869C161.452 74.2312 160.379 74.8315 159.265 74.8315C158.753 74.8315 158.241 74.704 157.768 74.4478H157.768ZM163.491 63.2776C161.886 62.6279 161.107 60.7954 161.757 59.1905C162.407 57.5854 164.239 56.8071 165.844 57.4568C167.449 58.1065 168.228 59.9391 167.578 61.544C167.085 62.7653 165.904 63.5041 164.663 63.5041C164.279 63.5041 163.885 63.426 163.491 63.2776L163.491 63.2776ZM167.746 51.4576C166.042 51.1421 164.91 49.5074 165.224 47.8036C165.54 46.0996 167.175 44.9673 168.878 45.2817C170.582 45.5972 171.715 47.2319 171.4 48.9358C171.124 50.4529 169.804 51.5071 168.318 51.5071C168.13 51.5071 167.943 51.4873 167.746 51.4577L167.746 51.4576ZM120.517 39.7167C119.669 38.1997 120.211 36.2889 121.718 35.4416C123.226 34.5942 125.146 35.1359 125.994 36.6431C126.841 38.1602 126.309 40.0709 124.792 40.9183C124.31 41.1942 123.777 41.3217 123.255 41.3217C122.161 41.3217 121.087 40.7512 120.517 39.7167H120.517ZM164.96 37.008C164.379 35.3733 165.226 33.5802 166.861 32.9988C168.496 32.4172 170.289 33.2648 170.87 34.8995C171.452 36.5342 170.604 38.3273 168.969 38.9087C168.624 39.0362 168.26 39.0956 167.915 39.0956C166.625 39.0956 165.423 38.2986 164.96 37.008L164.96 37.008ZM131.608 33.8264C130.929 32.2302 131.667 30.3888 133.263 29.7094C134.859 29.03 136.7 29.7688 137.38 31.3639C138.059 32.9601 137.32 34.8016 135.725 35.4809C135.322 35.648 134.907 35.7371 134.494 35.7371C133.272 35.7371 132.12 35.0181 131.608 33.8264V33.8264ZM143.319 29.305C142.935 27.6109 143.999 25.9366 145.693 25.5519C147.387 25.1682 149.061 26.2313 149.446 27.9253C149.829 29.6194 148.766 31.2937 147.072 31.6785C146.836 31.7279 146.609 31.7576 146.383 31.7576C144.945 31.7576 143.654 30.7627 143.319 29.305L143.319 29.305ZM158.134 31.1959C156.44 30.8122 155.385 29.1269 155.77 27.4427C156.154 25.7487 157.839 24.6944 159.523 25.0792C161.217 25.4629 162.272 27.1481 161.887 28.8323C161.552 30.29 160.262 31.275 158.823 31.275C158.606 31.275 158.37 31.2453 158.134 31.1959L158.134 31.1959Z" fill="#EFF2FF"/>
</svg>
