<svg width="730" height="888" viewBox="0 0 730 888" fill="none" xmlns="http://www.w3.org/2000/svg">
<path d="M321.116 179.553L321.605 180.425C322.065 180.167 322.246 179.595 322.017 179.12C321.788 178.644 321.23 178.428 320.741 178.626L321.116 179.553ZM335.798 194.669L336.63 195.224L335.798 194.669ZM334.329 193.429L335.015 194.157L334.329 193.429ZM181.51 257.947L181.021 257.076L181.51 257.947ZM182.375 235.72L182 234.793L182.375 235.72ZM180 165V234.793H182V165H180ZM182.75 236.647L321.491 180.48L320.741 178.626L182 234.793L182.75 236.647ZM320.626 178.681L181.021 257.076L182 258.819L321.605 180.425L320.626 178.681ZM180 258.819V335H182V258.819H180ZM182 337H354V335H182V337ZM356 335V165H354V335H356ZM354 163H182V165H354V163ZM334.965 194.115C319.457 217.403 297.42 248.851 277.702 273.423C267.838 285.716 258.582 296.253 251.029 303.188C247.246 306.661 243.939 309.185 241.231 310.584C238.456 312.018 236.661 312.097 235.586 311.38L234.477 313.045C236.538 314.418 239.275 313.846 242.149 312.361C245.092 310.84 248.554 308.175 252.381 304.661C260.049 297.621 269.381 286.988 279.262 274.675C299.033 250.037 321.106 218.535 336.63 195.224L334.965 194.115ZM235.586 311.38C234.599 310.723 234.169 309.33 234.941 306.595C235.695 303.922 237.5 300.409 240.213 296.207C245.627 287.825 254.473 276.98 265.052 265.126C286.198 241.432 314.14 213.85 335.015 194.157L333.643 192.702C312.748 212.413 284.76 240.04 263.56 263.795C252.965 275.665 244.034 286.605 238.533 295.122C235.79 299.37 233.853 303.085 233.016 306.051C232.197 308.955 232.323 311.611 234.477 313.045L235.586 311.38ZM336.63 195.224C337.943 193.252 335.371 191.072 333.643 192.702L335.015 194.157C335.037 194.136 335.046 194.134 335.039 194.137C335.032 194.14 335.021 194.143 335.007 194.143C334.995 194.143 334.988 194.14 334.985 194.139C334.983 194.138 334.984 194.138 334.986 194.14C334.989 194.142 334.989 194.143 334.988 194.141C334.986 194.139 334.983 194.132 334.981 194.12C334.978 194.107 334.979 194.095 334.981 194.088C334.982 194.081 334.982 194.09 334.965 194.115L336.63 195.224ZM356 165C356 163.895 355.105 163 354 163V165V165H356ZM180 335C180 336.105 180.895 337 182 337V335H180ZM181.021 257.076C180.39 257.43 180 258.096 180 258.819H182L182 258.819L181.021 257.076ZM180 234.793C180 236.211 181.436 237.179 182.75 236.647L182 234.793H180ZM354 337C355.105 337 356 336.105 356 335H354V337ZM182 165H182V163C180.895 163 180 163.895 180 165H182Z" fill="#E545E7"/>
<path d="M439.447 250.915L439.953 250.052C439.478 249.774 438.869 249.931 438.587 250.404C438.306 250.876 438.459 251.487 438.93 251.771L439.447 250.915ZM412.079 195.895L411.516 196.722L412.079 195.895ZM412.962 194.196L413.316 193.261L412.962 194.196ZM540.517 311.921L540 312.777L540.517 311.921ZM439.147 335.618L439.933 335L439.147 335.618ZM402.488 292.15L403.401 291.742L402.488 292.15ZM404.187 291.124L403.401 291.742L404.187 291.124ZM421.435 334.592L420.522 335L421.435 334.592ZM368 165V335H370V165H368ZM370 337H420.522V335H370V337ZM422.349 334.185L403.401 291.742L401.575 292.557L420.522 335L422.349 334.185ZM403.401 291.742L438.36 336.236L439.933 335L404.974 290.506L403.401 291.742ZM439.933 337H540V335H439.933V337ZM542 335V312.777H540V335H542ZM541.034 311.065L439.964 250.059L438.93 251.771L540 312.777L541.034 311.065ZM438.941 251.777C454.931 261.156 480.477 269.442 502.076 270.326C512.869 270.768 522.81 269.368 530.089 265.206C537.447 260.999 542 254.013 542 243.596H540C540 253.306 535.823 259.624 529.096 263.47C522.29 267.361 512.789 268.763 502.158 268.328C480.909 267.458 455.679 259.277 439.953 250.052L438.941 251.777ZM370 165H540V163H370V165ZM540 165V243.596H542V165H540ZM411.516 196.722C430.191 209.425 455.81 225.959 477.462 237.941C488.28 243.928 498.151 248.803 505.686 251.488C509.444 252.827 512.695 253.649 515.224 253.761C517.703 253.87 519.883 253.299 520.852 251.362L519.063 250.468C518.652 251.29 517.592 251.863 515.312 251.763C513.083 251.664 510.056 250.922 506.358 249.604C498.981 246.975 489.226 242.166 478.43 236.191C456.855 224.252 431.294 207.756 412.641 195.068L411.516 196.722ZM520.852 251.362C521.814 249.438 520.997 247.323 519.459 245.347C517.889 243.329 515.331 241.131 512.063 238.816C505.51 234.175 495.848 228.893 484.747 223.481C462.528 212.649 434.367 201.216 413.316 193.261L412.609 195.132C433.635 203.077 461.731 214.485 483.87 225.278C494.948 230.679 504.49 235.904 510.907 240.449C514.123 242.727 516.492 244.79 517.881 246.575C519.303 248.403 519.48 249.633 519.063 250.468L520.852 251.362ZM412.641 195.068C412.616 195.051 412.613 195.043 412.617 195.049C412.621 195.055 412.627 195.066 412.63 195.079C412.635 195.103 412.628 195.11 412.631 195.104C412.635 195.097 412.633 195.106 412.61 195.116C412.598 195.121 412.586 195.123 412.579 195.123C412.572 195.123 412.58 195.121 412.609 195.132L413.316 193.261C411.111 192.428 409.563 195.393 411.516 196.722L412.641 195.068ZM540 165V165H542C542 163.895 541.105 163 540 163V165ZM542 312.777C542 312.077 541.633 311.427 541.034 311.065L540 312.777H542ZM540 337C541.105 337 542 336.105 542 335H540V337ZM438.36 336.236C438.739 336.718 439.319 337 439.933 337V335H439.933L438.36 336.236ZM403.401 291.742C403.395 291.729 403.393 291.721 403.392 291.719C403.392 291.716 403.392 291.716 403.392 291.72C403.392 291.723 403.392 291.728 403.391 291.734C403.39 291.739 403.389 291.744 403.388 291.748C403.385 291.756 403.382 291.758 403.385 291.755C403.387 291.752 403.392 291.747 403.401 291.742C403.409 291.737 403.417 291.735 403.42 291.734C403.424 291.733 403.421 291.734 403.412 291.733C403.408 291.732 403.403 291.731 403.398 291.73C403.393 291.728 403.388 291.726 403.385 291.724C403.382 291.722 403.382 291.722 403.384 291.724C403.386 291.725 403.392 291.731 403.401 291.742L404.974 290.506C403.517 288.653 400.614 290.405 401.575 292.557L403.401 291.742ZM420.522 337C421.971 337 422.939 335.508 422.349 334.185L420.522 335H420.522V337ZM368 335C368 336.105 368.895 337 370 337V335H368ZM370 165V163C368.895 163 368 163.895 368 165H370Z" fill="#E545E7"/>
<path d="M674.373 335.945H555C554.448 335.945 554 335.497 554 334.945V165C554 164.448 554.448 164 555 164H729C729.552 164 730 164.441 730 164.993V202.413C730 230.117 716.118 229.248 709.102 225.321C709.05 225.292 708.998 225.268 708.943 225.249L645.159 202.724C644.664 202.549 644.118 202.787 643.909 203.269L606.655 289.125C606.163 290.259 607.761 291.102 608.419 290.055L653.906 217.692C654.145 217.311 654.599 217.133 655.029 217.264C667.54 221.063 694.716 230.189 709.026 238.083C727.264 248.143 730 261.862 730 279.239C730 326.799 692.915 336.859 674.373 335.945Z" fill="#E545E7"/>
<path d="M249.252 527H184C183.448 527 183 526.552 183 526V357C183 356.448 183.448 356 184 356H221.68C222.081 356 222.442 356.239 222.6 356.607L255.901 434.543C256.376 435.653 258.046 435.128 257.8 433.946L241.804 357.204C241.675 356.583 242.149 356 242.783 356H354C354.552 356 355 356.448 355 357V526C355 526.552 354.552 527 354 527H274.009C273.338 527 272.857 526.351 273.053 525.709L289.896 470.395C290.231 469.293 288.746 468.591 288.107 469.548L250.084 526.555C249.899 526.833 249.586 527 249.252 527Z" fill="#FCBE45"/>
<path d="M369 526V357C369 356.448 369.448 356 370 356H539C539.552 356 540 356.448 540 357V425.968C540 426.642 539.347 427.123 538.703 426.922L410.154 386.91C409.02 386.558 408.326 388.124 409.349 388.727L487.525 434.809C488.133 435.168 488.188 436.026 487.631 436.46L409.548 497.283C408.599 498.021 409.523 499.499 410.603 498.969L538.56 436.262C539.224 435.936 540 436.42 540 437.16V526C540 526.552 539.552 527 539 527H370C369.448 527 369 526.552 369 526Z" stroke="#E545E7" stroke-width="2" stroke-linejoin="round"/>
<path d="M556 716V547C556 546.448 556.448 546 557 546H726C726.552 546 727 546.448 727 547V615.968C727 616.642 726.347 617.123 725.703 616.922L597.154 576.91C596.02 576.558 595.326 578.124 596.349 578.727L674.525 624.809C675.133 625.168 675.188 626.026 674.631 626.46L596.548 687.283C595.599 688.021 596.523 689.499 597.603 688.969L725.56 626.262C726.224 625.936 727 626.42 727 627.16V716C727 716.552 726.552 717 726 717H557C556.448 717 556 716.552 556 716Z" fill="url(#paint0_linear_76_3653)"/>
<path d="M554 526V357C554 356.448 554.448 356 555 356H727C727.552 356 728 356.448 728 357V526C728 526.552 727.552 527 727 527H700.282C699.876 527 699.51 526.755 699.356 526.379L641.916 386.176L681.846 525.725C682.028 526.364 681.549 527 680.884 527H588.367C587.681 527 587.199 526.325 587.421 525.677L626.347 411.781L568.929 526.448C568.76 526.786 568.414 527 568.035 527H555C554.448 527 554 526.552 554 526Z" stroke="#E545E7" stroke-width="2" stroke-linejoin="round"/>
<path d="M311.719 716.933L311.782 715.935C311.761 715.933 311.74 715.933 311.719 715.933V716.933ZM355.596 670.315L354.596 670.296L355.596 670.315ZM182.284 642.359L182.568 641.4L182.284 642.359ZM294.428 673.516L293.978 674.409L294.428 673.516ZM293.694 675.368L293.978 674.409L293.694 675.368ZM181.55 616.661L181.1 617.554L181.55 616.661ZM256.241 546.524L257.121 546.047L256.241 546.524ZM355.608 546.964L356.608 546.952L355.608 546.964ZM289.244 603.304L288.281 603.571L289.244 603.304ZM287.401 604.048L288.281 603.571L287.401 604.048ZM182 717.933H311.719V715.933H182V717.933ZM311.655 717.931C319.004 718.4 330.04 716.577 339.355 709.574C348.716 702.536 356.225 690.349 356.596 670.333L354.596 670.296C354.236 689.769 346.967 701.348 338.153 707.975C329.292 714.637 318.754 716.38 311.782 715.935L311.655 717.931ZM356.596 670.333C357.318 631.328 356.911 572.484 356.608 546.952L354.608 546.976C354.912 572.504 355.318 631.323 354.596 670.296L356.596 670.333ZM354.608 545H274.641V547H354.608V545ZM272.714 547.535L288.281 603.571L290.208 603.036L274.641 547L272.714 547.535ZM288.281 603.571L257.121 546.047L255.362 547L286.522 604.524L288.281 603.571ZM255.362 545H182V547H255.362V545ZM180 547V615.768H182V547H180ZM181.1 617.554L293.978 674.409L294.878 672.623L182 615.768L181.1 617.554ZM180 643.318V715.933H182V643.318H180ZM293.978 674.409L182.568 641.4L182 643.318L293.41 676.327L293.978 674.409ZM182 643.318H182L182.568 641.4C181.286 641.02 180 641.981 180 643.318H182ZM293.978 674.409C293.992 674.416 294 674.421 294.002 674.423C294.005 674.425 294.004 674.425 294.002 674.422C293.999 674.419 293.996 674.415 293.993 674.41C293.99 674.404 293.988 674.399 293.986 674.394C293.983 674.385 293.984 674.382 293.984 674.386C293.984 674.388 293.983 674.391 293.982 674.395C293.982 674.399 293.98 674.404 293.978 674.409C293.976 674.414 293.974 674.418 293.972 674.422C293.97 674.426 293.968 674.428 293.966 674.43C293.964 674.433 293.966 674.43 293.974 674.425C293.978 674.423 293.983 674.42 293.989 674.419C293.995 674.417 294.001 674.416 294.004 674.415C294.008 674.415 294.009 674.415 294.006 674.415C294.002 674.415 293.993 674.413 293.978 674.409L293.41 676.327C295.748 677.019 297.056 673.72 294.878 672.623L293.978 674.409ZM180 615.768C180 616.523 180.426 617.214 181.1 617.554L182 615.768H182H180ZM257.121 546.047C256.771 545.402 256.096 545 255.362 545V547L255.362 547L257.121 546.047ZM356.608 546.952C356.594 545.825 355.671 545 354.608 545V547C354.618 547 354.622 547.002 354.623 547.002C354.624 547.002 354.623 547.002 354.62 547C354.618 546.997 354.614 546.993 354.611 546.986C354.61 546.983 354.609 546.98 354.608 546.978C354.608 546.975 354.608 546.974 354.608 546.976L356.608 546.952ZM288.281 603.571C288.284 603.585 288.285 603.594 288.286 603.597C288.286 603.6 288.286 603.599 288.286 603.596C288.286 603.592 288.287 603.587 288.289 603.582C288.291 603.576 288.293 603.571 288.295 603.567C288.3 603.56 288.302 603.558 288.3 603.56C288.297 603.563 288.29 603.568 288.281 603.571C288.271 603.575 288.263 603.576 288.259 603.577C288.256 603.577 288.259 603.576 288.267 603.579C288.272 603.58 288.276 603.582 288.282 603.585C288.287 603.587 288.291 603.59 288.293 603.593C288.296 603.595 288.296 603.596 288.294 603.593C288.293 603.591 288.287 603.584 288.281 603.571L286.522 604.524C287.656 606.618 290.845 605.331 290.208 603.036L288.281 603.571ZM182 715.933H180C180 717.037 180.895 717.933 182 717.933V715.933ZM274.641 545C273.319 545 272.36 546.261 272.714 547.535L274.641 547L274.641 547V545ZM182 545C180.895 545 180 545.895 180 547H182L182 547V545Z" fill="#E545E7"/>
<path d="M407.182 576.909L408.117 576.554C407.921 576.039 407.346 575.779 406.83 575.973C406.314 576.167 406.052 576.742 406.245 577.258L407.182 576.909ZM489 671.455L489.12 670.462L489 671.455ZM512.636 642.364L511.996 641.595L512.636 642.364ZM434.155 568.728L434.934 568.101L434.155 568.728ZM435.592 567.23L436.181 566.422L435.592 567.23ZM458.497 714.651L457.56 715L458.497 714.651ZM368 547V715H370V547H368ZM370 717H457.56V715H370V717ZM459.434 714.302L408.119 576.56L406.245 577.258L457.56 715L459.434 714.302ZM406.247 577.264C412.489 593.707 424.114 616.354 438.644 635.447C445.909 644.994 453.922 653.68 462.374 660.258C470.823 666.832 479.764 671.342 488.88 672.447L489.12 670.462C480.488 669.415 471.882 665.123 463.603 658.68C455.328 652.241 447.434 643.695 440.235 634.236C425.835 615.313 414.299 592.838 408.117 576.554L406.247 577.264ZM488.88 672.447C504.148 674.298 516.949 669.904 525.933 661.503C534.908 653.111 540 640.79 540 626.909H538C538 640.301 533.092 652.071 524.567 660.042C516.051 668.005 503.852 672.248 489.12 670.462L488.88 672.447ZM540 626.909V547H538V626.909H540ZM538 545H370V547H538V545ZM433.376 569.355C445.935 584.946 462.534 605.939 477.519 621.755C485.006 629.657 492.139 636.321 498.201 640.373C501.228 642.396 504.054 643.814 506.57 644.378C509.109 644.947 511.438 644.664 513.277 643.132L511.996 641.595C510.781 642.608 509.154 642.907 507.008 642.426C504.839 641.94 502.252 640.674 499.313 638.71C493.443 634.787 486.435 628.257 478.971 620.38C464.055 604.637 447.519 583.724 434.934 568.101L433.376 569.355ZM513.277 643.132C515.345 641.408 516.108 639.152 515.785 636.592C515.472 634.108 514.144 631.359 512.135 628.457C508.108 622.641 501.072 615.831 492.624 608.696C475.713 594.41 452.829 578.563 436.181 566.422L435.003 568.038C451.718 580.228 474.495 595.999 491.334 610.223C499.762 617.343 506.623 624.011 510.491 629.596C512.429 632.395 513.547 634.827 513.801 636.842C514.046 638.783 513.497 640.345 511.996 641.595L513.277 643.132ZM434.934 568.101C434.92 568.084 434.922 568.08 434.925 568.09C434.927 568.1 434.928 568.109 434.927 568.115C434.927 568.119 434.926 568.115 434.931 568.105C434.937 568.094 434.946 568.08 434.959 568.066C434.973 568.052 434.987 568.042 434.998 568.036C435.009 568.03 435.014 568.029 435.011 568.03C435.007 568.031 434.999 568.031 434.99 568.029C434.981 568.026 434.985 568.025 435.003 568.038L436.181 566.422C435.213 565.716 434.116 566.056 433.516 566.681C432.916 567.306 432.622 568.42 433.376 569.355L434.934 568.101ZM457.56 717C458.955 717 459.921 715.609 459.434 714.302L457.56 715V717ZM540 547C540 545.895 539.105 545 538 545V547V547H540ZM368 715C368 716.105 368.895 717 370 717V715H368ZM370 547H370V545C368.895 545 368 545.895 368 547H370Z" fill="#E545E7"/>
<g filter="url(#filter0_b_76_3653)">
<rect x="356" y="796" width="92" height="92" rx="20" fill="white" fill-opacity="0.09"/>
<rect x="356" y="796" width="92" height="92" rx="20" fill="url(#paint1_linear_76_3653)" fill-opacity="0.5"/>
<rect x="357" y="797" width="90" height="90" rx="19" stroke="url(#paint2_linear_76_3653)" stroke-width="2"/>
</g>
<g filter="url(#filter1_b_76_3653)">
<rect y="174" width="92" height="92" rx="20" fill="white" fill-opacity="0.09"/>
<rect y="174" width="92" height="92" rx="20" fill="url(#paint3_linear_76_3653)" fill-opacity="0.5"/>
<rect x="1" y="175" width="90" height="90" rx="19" stroke="#FCBE45" stroke-width="2"/>
</g>
<g filter="url(#filter2_b_76_3653)">
<rect x="612" width="92" height="92" rx="20" fill="white" fill-opacity="0.09"/>
<rect x="612" width="92" height="92" rx="20" fill="url(#paint4_linear_76_3653)" fill-opacity="0.5"/>
<rect x="613" y="1" width="90" height="90" rx="19" stroke="#E545E7" stroke-width="2"/>
</g>
<path d="M455 163V132.5H658V92.5" stroke="#E545E7" stroke-dasharray="10 10"/>
<path d="M46 265.5V335H128V412.5H183" stroke="#FCBE45" stroke-dasharray="10 10"/>
<path d="M446.5 845H569V799H690V716.5" stroke="url(#paint5_linear_76_3653)" stroke-dasharray="10 10"/>
<path d="M15.892 225.142L34.7557 234.29V229.943L20.9631 223.665V223.438L34.7557 217.145V212.812L15.892 221.96V225.142ZM52.5753 204.545H48.7827L39.4077 239.375H43.2003L52.5753 204.545ZM76.0838 225.142V221.96L57.2202 212.812V217.145L70.9986 223.423V223.679L57.2202 229.943V234.29L76.0838 225.142Z" fill="#FCBE45"/>
<path d="M627.892 51.142L646.756 60.2898V55.9432L632.963 49.6648V49.4375L646.756 43.1449V38.8125L627.892 47.9602V51.142ZM664.575 30.5455H660.783L651.408 65.375H655.2L664.575 30.5455ZM688.084 51.142V47.9602L669.22 38.8125V43.1449L682.999 49.4233V49.679L669.22 55.9432V60.2898L688.084 51.142Z" fill="#E545E7"/>
<path d="M371.892 847.142L390.756 856.29V851.943L376.963 845.665V845.438L390.756 839.145V834.812L371.892 843.96V847.142ZM408.575 826.545H404.783L395.408 861.375H399.2L408.575 826.545ZM432.084 847.142V843.96L413.22 834.812V839.145L426.999 845.423V845.679L413.22 851.943V856.29L432.084 847.142Z" fill="url(#paint6_linear_76_3653)"/>
<defs>
<filter id="filter0_b_76_3653" x="352" y="792" width="100" height="100" filterUnits="userSpaceOnUse" color-interpolation-filters="sRGB">
<feFlood flood-opacity="0" result="BackgroundImageFix"/>
<feGaussianBlur in="BackgroundImage" stdDeviation="2"/>
<feComposite in2="SourceAlpha" operator="in" result="effect1_backgroundBlur_76_3653"/>
<feBlend mode="normal" in="SourceGraphic" in2="effect1_backgroundBlur_76_3653" result="shape"/>
</filter>
<filter id="filter1_b_76_3653" x="-4" y="170" width="100" height="100" filterUnits="userSpaceOnUse" color-interpolation-filters="sRGB">
<feFlood flood-opacity="0" result="BackgroundImageFix"/>
<feGaussianBlur in="BackgroundImage" stdDeviation="2"/>
<feComposite in2="SourceAlpha" operator="in" result="effect1_backgroundBlur_76_3653"/>
<feBlend mode="normal" in="SourceGraphic" in2="effect1_backgroundBlur_76_3653" result="shape"/>
</filter>
<filter id="filter2_b_76_3653" x="608" y="-4" width="100" height="100" filterUnits="userSpaceOnUse" color-interpolation-filters="sRGB">
<feFlood flood-opacity="0" result="BackgroundImageFix"/>
<feGaussianBlur in="BackgroundImage" stdDeviation="2"/>
<feComposite in2="SourceAlpha" operator="in" result="effect1_backgroundBlur_76_3653"/>
<feBlend mode="normal" in="SourceGraphic" in2="effect1_backgroundBlur_76_3653" result="shape"/>
</filter>
<linearGradient id="paint0_linear_76_3653" x1="641.5" y1="546" x2="641.5" y2="717" gradientUnits="userSpaceOnUse">
<stop stop-color="#FDC043"/>
<stop offset="1" stop-color="#E543E8"/>
</linearGradient>
<linearGradient id="paint1_linear_76_3653" x1="402" y1="796" x2="402" y2="888" gradientUnits="userSpaceOnUse">
<stop stop-color="white" stop-opacity="0.2"/>
<stop offset="1" stop-color="white" stop-opacity="0"/>
</linearGradient>
<linearGradient id="paint2_linear_76_3653" x1="336.619" y1="789.372" x2="364.81" y2="897.615" gradientUnits="userSpaceOnUse">
<stop stop-color="#FDC043"/>
<stop offset="1" stop-color="#E545E7"/>
</linearGradient>
<linearGradient id="paint3_linear_76_3653" x1="46" y1="174" x2="46" y2="266" gradientUnits="userSpaceOnUse">
<stop stop-color="white" stop-opacity="0.2"/>
<stop offset="1" stop-color="white" stop-opacity="0"/>
</linearGradient>
<linearGradient id="paint4_linear_76_3653" x1="658" y1="0" x2="658" y2="92" gradientUnits="userSpaceOnUse">
<stop stop-color="white" stop-opacity="0.2"/>
<stop offset="1" stop-color="white" stop-opacity="0"/>
</linearGradient>
<linearGradient id="paint5_linear_76_3653" x1="568.25" y1="716.5" x2="568.25" y2="845" gradientUnits="userSpaceOnUse">
<stop stop-color="#FDC043"/>
<stop offset="1" stop-color="#E543E8"/>
</linearGradient>
<linearGradient id="paint6_linear_76_3653" x1="402" y1="818" x2="402" y2="866" gradientUnits="userSpaceOnUse">
<stop stop-color="#FDC043"/>
<stop offset="1" stop-color="#E543E8"/>
</linearGradient>
</defs>
</svg>
