<svg width="1122" height="312" viewBox="0 0 1122 312" fill="none" xmlns="http://www.w3.org/2000/svg">
<path fill-rule="evenodd" clip-rule="evenodd" d="M225 0C88.3979 26.5352 0 68.8481 0 116.515C0 136.65 15.7723 155.829 44.2875 173.268C44.3821 172.935 44.4781 172.603 44.5756 172.272C16.2719 154.91 1 136.041 1 116.515C1 96.9819 16.2839 78.1053 44.6089 60.7385C72.8768 43.4066 113.848 27.7622 164.564 14.6099C183.421 9.7196 203.618 5.1758 225 1.0187V0ZM908 3.21281C925.336 6.7598 941.844 10.5664 957.436 14.6099C977.697 19.8643 996.403 25.5164 1013.37 31.515C1013.5 31.2098 1013.65 30.9062 1013.79 30.6041C983.64 19.9358 948.019 10.3725 908 2.19212V3.21281ZM1121 116.515C1121 136.049 1105.72 154.925 1077.39 172.292C1049.12 189.624 1008.15 205.268 957.436 218.421C856.018 244.721 715.857 261 561 261C439.427 261 326.912 250.967 235.089 233.928C235.002 234.251 234.913 234.574 234.823 234.896C326.735 251.958 439.346 262 561 262C870.832 262 1122 196.864 1122 116.515C1122 104.711 1116.58 93.2347 1106.35 82.2452C1106.19 82.5699 1106.04 82.8927 1105.88 83.2136C1115.81 93.9788 1121 105.136 1121 116.515Z" fill="white"/>
<ellipse cx="1060.5" cy="56.9182" rx="56.5" ry="53.562" fill="url(#paint0_radial_87_12130)" fill-opacity="0.4"/>
<path d="M1035.71 98.4267L1027.67 101.909M1035.71 98.4267L1024.73 91.9982M1035.71 98.4267L1049.91 108.069M1027.67 101.909L1024.73 91.9982M1027.67 101.909L1049.91 108.069M1027.67 101.909L1006.78 74.8557M1024.73 91.9982L1044.82 85.3019M1024.73 91.9982L1018.83 66.0166M1024.73 91.9982L1006.78 74.8557M1044.82 85.3019L1049.91 108.069M1044.82 85.3019L1076.97 93.6053M1044.82 85.3019L1045.36 52.3562M1044.82 85.3019L1069.47 69.4987M1044.82 85.3019L1018.83 66.0166M1049.91 108.069L1059.82 110.48M1049.91 108.069L1076.97 93.6053M1059.82 110.48L1079.11 108.069M1059.82 110.48L1091.7 98.4267M1079.11 108.069L1076.97 93.6053M1079.11 108.069L1092.77 100.034M1076.97 93.6053L1069.47 69.4987M1076.97 93.6053L1097.33 66.0166M1076.97 93.6053L1103.22 88.784M1069.47 69.4987L1097.33 66.0166M1069.47 69.4987L1078.04 40.8385M1069.47 69.4987L1045.36 52.3562M1103.22 88.784L1097.33 66.0166M1103.22 88.784L1092.77 100.034M1103.22 88.784L1113.67 72.445L1114.74 61.1953M1103.22 88.784L1108.85 69.4987L1114.74 61.1953M1103.22 88.784L1091.7 98.4267M1097.33 66.0166L1114.74 61.1953M1097.33 66.0166L1103.22 35.2136M1097.33 66.0166L1078.04 40.8385M1092.77 100.034L1091.7 98.4267M1114.74 61.1953L1103.22 35.2136M1114.74 61.1953L1113.67 37.3564M1078.04 40.8385L1045.36 52.3562M1078.04 40.8385L1103.22 35.2136M1078.04 40.8385L1079.91 15.6604M1078.04 40.8385L1051.52 20.7496M1045.36 52.3562L1051.52 20.7496M1045.36 52.3562L1025.26 36.285M1045.36 52.3562L1018.83 66.0166M1103.22 35.2136L1113.67 37.3564M1103.22 35.2136L1079.91 15.6604M1103.22 35.2136L1099.32 25.8388M1113.67 37.3564L1093.31 11.3748M1113.67 37.3564L1099.32 25.8388M1093.31 11.3748L1079.91 15.6604M1093.31 11.3748L1070.54 4.94853M1093.31 11.3748L1099.32 25.8388M1079.91 15.6604L1051.52 20.7496M1079.91 15.6604L1060.09 2M1051.52 20.7496L1060.09 2M1051.52 20.7496L1027.67 14.8569M1051.52 20.7496L1025.26 36.285M1060.09 2L1040.53 5.21422M1060.09 2L1027.67 14.8569M1060.09 2L1070.54 4.94853M1040.53 5.21422L1027.67 14.8569M1040.53 5.21422L1070.54 4.94853M1027.67 14.8569L1025.26 36.285M1027.67 14.8569L1016.42 22.8924L1006.78 41.9099M1027.67 14.8569L1006.78 41.9099M1025.26 36.285L1006.78 41.9099M1025.26 36.285L1018.83 66.0166M1006.78 41.9099L1004.9 53.1597L1006.78 74.8557M1006.78 41.9099L1018.83 66.0166M1006.78 41.9099L1008.65 53.1597L1006.78 74.8557M1006.78 74.8557L1018.83 66.0166" stroke="white"/>
<g filter="url(#filter0_f_87_12130)">
<circle cx="1045.58" cy="52.1719" r="2.26" fill="#EFF2FF"/>
</g>
<g filter="url(#filter1_f_87_12130)">
<circle cx="1044.68" cy="84.7161" r="2.26" fill="#EFF2FF"/>
</g>
<g filter="url(#filter2_f_87_12130)">
<circle cx="1069.54" cy="69.8" r="2.26" fill="#EFF2FF"/>
</g>
<g filter="url(#filter3_f_87_12130)">
<circle cx="1078.13" cy="40.8721" r="2.26" fill="#EFF2FF"/>
</g>
<g filter="url(#filter4_f_87_12130)">
<circle cx="1051.91" cy="20.9841" r="2.26" fill="#EFF2FF"/>
</g>
<g filter="url(#filter5_f_87_12130)">
<circle cx="1097.56" cy="66.1841" r="2.26" fill="#EFF2FF"/>
</g>
<g filter="url(#filter6_f_87_12130)">
<circle cx="1076.77" cy="93.3039" r="2.26" fill="#EFF2FF"/>
</g>
<g filter="url(#filter7_f_87_12130)">
<circle cx="1025.7" cy="35.448" r="2.26" fill="#EFF2FF"/>
</g>
<g filter="url(#filter8_f_87_12130)">
<circle cx="1019.37" cy="66.1841" r="2.26" fill="#EFF2FF"/>
</g>
<g filter="url(#filter9_f_87_12130)">
<circle cx="1103.44" cy="35.448" r="2.26" fill="#EFF2FF"/>
</g>
<g filter="url(#filter10_f_87_12130)">
<circle cx="1080.39" cy="15.1079" r="2.26" fill="#EFF2FF"/>
</g>
<g filter="url(#filter11_f_87_12130)">
<circle cx="1025.7" cy="91.948" r="2.26" fill="#EFF2FF"/>
</g>
<circle cx="1045.58" cy="52.1719" r="1.356" fill="#EFF2FF"/>
<circle cx="1044.68" cy="84.7159" r="1.356" fill="#EFF2FF"/>
<circle cx="1069.54" cy="69.7999" r="1.356" fill="#EFF2FF"/>
<circle cx="1078.13" cy="40.8719" r="1.356" fill="#EFF2FF"/>
<circle cx="1051.91" cy="20.9839" r="1.356" fill="#EFF2FF"/>
<circle cx="1097.56" cy="66.1839" r="1.356" fill="#EFF2FF"/>
<circle cx="1076.77" cy="93.3038" r="1.356" fill="#EFF2FF"/>
<circle cx="1025.7" cy="35.448" r="1.356" fill="#EFF2FF"/>
<circle cx="1019.37" cy="66.1839" r="1.356" fill="#EFF2FF"/>
<circle cx="1103.44" cy="35.448" r="1.356" fill="#EFF2FF"/>
<circle cx="1080.39" cy="15.108" r="1.356" fill="#EFF2FF"/>
<circle cx="1025.7" cy="91.948" r="1.356" fill="#EFF2FF"/>
<ellipse cx="136.083" cy="214.225" rx="102.083" ry="96.775" fill="url(#paint1_radial_87_12130)" fill-opacity="0.4"/>
<path d="M91.2961 289.222L76.7754 295.514M91.2961 289.222L71.4511 277.607M91.2961 289.222L116.949 306.644M76.7754 295.514L71.4511 277.607M76.7754 295.514L116.949 306.644M76.7754 295.514L39.0215 246.635M71.4511 277.607L107.753 265.509M71.4511 277.607L60.8026 230.664M71.4511 277.607L39.0215 246.635M107.753 265.509L116.949 306.644M107.753 265.509L165.836 280.511M107.753 265.509L108.721 205.983M107.753 265.509L152.283 236.956M107.753 265.509L60.8026 230.664M116.949 306.644L134.858 311M116.949 306.644L165.836 280.511M134.858 311L169.708 306.644M134.858 311L192.457 289.222M169.708 306.644L165.836 280.511M169.708 306.644L194.393 292.126M165.836 280.511L152.283 236.956M165.836 280.511L202.622 230.664M165.836 280.511L213.27 271.8M152.283 236.956L202.622 230.664M152.283 236.956L167.772 185.173M152.283 236.956L108.721 205.983M213.27 271.8L202.622 230.664M213.27 271.8L194.393 292.126M213.27 271.8L232.147 242.279L234.083 221.953M213.27 271.8L223.435 236.956L234.083 221.953M213.27 271.8L192.457 289.222M202.622 230.664L234.083 221.953M202.622 230.664L213.27 175.01M202.622 230.664L167.772 185.173M194.393 292.126L192.457 289.222M234.083 221.953L213.27 175.01M234.083 221.953L232.147 178.881M167.772 185.173L108.721 205.983M167.772 185.173L213.27 175.01M167.772 185.173L171.16 139.681M167.772 185.173L119.854 148.877M108.721 205.983L119.854 148.877M108.721 205.983L72.4191 176.946M108.721 205.983L60.8026 230.664M213.27 175.01L232.147 178.881M213.27 175.01L171.16 139.681M213.27 175.01L206.227 158.072M232.147 178.881L195.361 131.938M232.147 178.881L206.227 158.072M195.361 131.938L171.16 139.681M195.361 131.938L154.219 120.327M195.361 131.938L206.227 158.072M171.16 139.681L119.854 148.877M171.16 139.681L135.342 115M119.854 148.877L135.342 115M119.854 148.877L76.7754 138.23M119.854 148.877L72.4191 176.946M135.342 115L100.009 120.807M135.342 115L76.7754 138.23M135.342 115L154.219 120.327M100.009 120.807L76.7754 138.23M100.009 120.807L154.219 120.327M76.7754 138.23L72.4191 176.946M76.7754 138.23L56.4463 152.748L39.0215 187.109M76.7754 138.23L39.0215 187.109M72.4191 176.946L39.0215 187.109M72.4191 176.946L60.8026 230.664M39.0215 187.109L35.6333 207.435L39.0215 246.635M39.0215 187.109L60.8026 230.664M39.0215 187.109L42.4096 207.435L39.0215 246.635M39.0215 246.635L60.8026 230.664" stroke="white"/>
<g filter="url(#filter12_f_87_12130)">
<circle cx="109.133" cy="205.65" r="4.08333" fill="#EFF2FF"/>
</g>
<g filter="url(#filter13_f_87_12130)">
<circle cx="107.5" cy="264.45" r="4.08333" fill="#EFF2FF"/>
</g>
<g filter="url(#filter14_f_87_12130)">
<circle cx="152.417" cy="237.5" r="4.08333" fill="#EFF2FF"/>
</g>
<g filter="url(#filter15_f_87_12130)">
<circle cx="167.933" cy="185.233" r="4.08333" fill="#EFF2FF"/>
</g>
<g filter="url(#filter16_f_87_12130)">
<circle cx="120.567" cy="149.3" r="4.08333" fill="#EFF2FF"/>
</g>
<g filter="url(#filter17_f_87_12130)">
<circle cx="203.05" cy="230.967" r="4.08333" fill="#EFF2FF"/>
</g>
<g filter="url(#filter18_f_87_12130)">
<circle cx="165.483" cy="279.966" r="4.08333" fill="#EFF2FF"/>
</g>
<g filter="url(#filter19_f_87_12130)">
<circle cx="73.2" cy="175.433" r="4.08333" fill="#EFF2FF"/>
</g>
<g filter="url(#filter20_f_87_12130)">
<circle cx="61.7668" cy="230.967" r="4.08333" fill="#EFF2FF"/>
</g>
<g filter="url(#filter21_f_87_12130)">
<circle cx="213.667" cy="175.433" r="4.08333" fill="#EFF2FF"/>
</g>
<g filter="url(#filter22_f_87_12130)">
<circle cx="172.017" cy="138.683" r="4.08333" fill="#EFF2FF"/>
</g>
<g filter="url(#filter23_f_87_12130)">
<circle cx="73.2" cy="277.517" r="4.08333" fill="#EFF2FF"/>
</g>
<circle cx="109.133" cy="205.65" r="2.45" fill="#EFF2FF"/>
<circle cx="107.5" cy="264.45" r="2.45" fill="#EFF2FF"/>
<circle cx="152.417" cy="237.5" r="2.45" fill="#EFF2FF"/>
<circle cx="167.933" cy="185.233" r="2.45" fill="#EFF2FF"/>
<circle cx="120.567" cy="149.3" r="2.45" fill="#EFF2FF"/>
<circle cx="203.05" cy="230.967" r="2.45" fill="#EFF2FF"/>
<circle cx="165.483" cy="279.967" r="2.45" fill="#EFF2FF"/>
<circle cx="73.2001" cy="175.433" r="2.45" fill="#EFF2FF"/>
<circle cx="61.7667" cy="230.967" r="2.45" fill="#EFF2FF"/>
<circle cx="213.667" cy="175.433" r="2.45" fill="#EFF2FF"/>
<circle cx="172.017" cy="138.683" r="2.45" fill="#EFF2FF"/>
<circle cx="73.2001" cy="277.517" r="2.45" fill="#EFF2FF"/>
<defs>
<filter id="filter0_f_87_12130" x="1036.32" y="42.9119" width="18.52" height="18.52" filterUnits="userSpaceOnUse" color-interpolation-filters="sRGB">
<feFlood flood-opacity="0" result="BackgroundImageFix"/>
<feBlend mode="normal" in="SourceGraphic" in2="BackgroundImageFix" result="shape"/>
<feGaussianBlur stdDeviation="3.5" result="effect1_foregroundBlur_87_12130"/>
</filter>
<filter id="filter1_f_87_12130" x="1035.42" y="75.4561" width="18.52" height="18.52" filterUnits="userSpaceOnUse" color-interpolation-filters="sRGB">
<feFlood flood-opacity="0" result="BackgroundImageFix"/>
<feBlend mode="normal" in="SourceGraphic" in2="BackgroundImageFix" result="shape"/>
<feGaussianBlur stdDeviation="3.5" result="effect1_foregroundBlur_87_12130"/>
</filter>
<filter id="filter2_f_87_12130" x="1060.28" y="60.54" width="18.52" height="18.52" filterUnits="userSpaceOnUse" color-interpolation-filters="sRGB">
<feFlood flood-opacity="0" result="BackgroundImageFix"/>
<feBlend mode="normal" in="SourceGraphic" in2="BackgroundImageFix" result="shape"/>
<feGaussianBlur stdDeviation="3.5" result="effect1_foregroundBlur_87_12130"/>
</filter>
<filter id="filter3_f_87_12130" x="1068.87" y="31.6121" width="18.52" height="18.52" filterUnits="userSpaceOnUse" color-interpolation-filters="sRGB">
<feFlood flood-opacity="0" result="BackgroundImageFix"/>
<feBlend mode="normal" in="SourceGraphic" in2="BackgroundImageFix" result="shape"/>
<feGaussianBlur stdDeviation="3.5" result="effect1_foregroundBlur_87_12130"/>
</filter>
<filter id="filter4_f_87_12130" x="1042.65" y="11.7241" width="18.52" height="18.52" filterUnits="userSpaceOnUse" color-interpolation-filters="sRGB">
<feFlood flood-opacity="0" result="BackgroundImageFix"/>
<feBlend mode="normal" in="SourceGraphic" in2="BackgroundImageFix" result="shape"/>
<feGaussianBlur stdDeviation="3.5" result="effect1_foregroundBlur_87_12130"/>
</filter>
<filter id="filter5_f_87_12130" x="1088.3" y="56.9241" width="18.52" height="18.52" filterUnits="userSpaceOnUse" color-interpolation-filters="sRGB">
<feFlood flood-opacity="0" result="BackgroundImageFix"/>
<feBlend mode="normal" in="SourceGraphic" in2="BackgroundImageFix" result="shape"/>
<feGaussianBlur stdDeviation="3.5" result="effect1_foregroundBlur_87_12130"/>
</filter>
<filter id="filter6_f_87_12130" x="1067.51" y="84.0439" width="18.52" height="18.52" filterUnits="userSpaceOnUse" color-interpolation-filters="sRGB">
<feFlood flood-opacity="0" result="BackgroundImageFix"/>
<feBlend mode="normal" in="SourceGraphic" in2="BackgroundImageFix" result="shape"/>
<feGaussianBlur stdDeviation="3.5" result="effect1_foregroundBlur_87_12130"/>
</filter>
<filter id="filter7_f_87_12130" x="1016.44" y="26.188" width="18.52" height="18.52" filterUnits="userSpaceOnUse" color-interpolation-filters="sRGB">
<feFlood flood-opacity="0" result="BackgroundImageFix"/>
<feBlend mode="normal" in="SourceGraphic" in2="BackgroundImageFix" result="shape"/>
<feGaussianBlur stdDeviation="3.5" result="effect1_foregroundBlur_87_12130"/>
</filter>
<filter id="filter8_f_87_12130" x="1010.11" y="56.9241" width="18.52" height="18.52" filterUnits="userSpaceOnUse" color-interpolation-filters="sRGB">
<feFlood flood-opacity="0" result="BackgroundImageFix"/>
<feBlend mode="normal" in="SourceGraphic" in2="BackgroundImageFix" result="shape"/>
<feGaussianBlur stdDeviation="3.5" result="effect1_foregroundBlur_87_12130"/>
</filter>
<filter id="filter9_f_87_12130" x="1094.18" y="26.188" width="18.52" height="18.52" filterUnits="userSpaceOnUse" color-interpolation-filters="sRGB">
<feFlood flood-opacity="0" result="BackgroundImageFix"/>
<feBlend mode="normal" in="SourceGraphic" in2="BackgroundImageFix" result="shape"/>
<feGaussianBlur stdDeviation="3.5" result="effect1_foregroundBlur_87_12130"/>
</filter>
<filter id="filter10_f_87_12130" x="1071.13" y="5.8479" width="18.52" height="18.52" filterUnits="userSpaceOnUse" color-interpolation-filters="sRGB">
<feFlood flood-opacity="0" result="BackgroundImageFix"/>
<feBlend mode="normal" in="SourceGraphic" in2="BackgroundImageFix" result="shape"/>
<feGaussianBlur stdDeviation="3.5" result="effect1_foregroundBlur_87_12130"/>
</filter>
<filter id="filter11_f_87_12130" x="1016.44" y="82.688" width="18.52" height="18.52" filterUnits="userSpaceOnUse" color-interpolation-filters="sRGB">
<feFlood flood-opacity="0" result="BackgroundImageFix"/>
<feBlend mode="normal" in="SourceGraphic" in2="BackgroundImageFix" result="shape"/>
<feGaussianBlur stdDeviation="3.5" result="effect1_foregroundBlur_87_12130"/>
</filter>
<filter id="filter12_f_87_12130" x="98.05" y="194.567" width="22.1667" height="22.1667" filterUnits="userSpaceOnUse" color-interpolation-filters="sRGB">
<feFlood flood-opacity="0" result="BackgroundImageFix"/>
<feBlend mode="normal" in="SourceGraphic" in2="BackgroundImageFix" result="shape"/>
<feGaussianBlur stdDeviation="3.5" result="effect1_foregroundBlur_87_12130"/>
</filter>
<filter id="filter13_f_87_12130" x="96.4167" y="253.367" width="22.1667" height="22.1667" filterUnits="userSpaceOnUse" color-interpolation-filters="sRGB">
<feFlood flood-opacity="0" result="BackgroundImageFix"/>
<feBlend mode="normal" in="SourceGraphic" in2="BackgroundImageFix" result="shape"/>
<feGaussianBlur stdDeviation="3.5" result="effect1_foregroundBlur_87_12130"/>
</filter>
<filter id="filter14_f_87_12130" x="141.333" y="226.417" width="22.1667" height="22.1667" filterUnits="userSpaceOnUse" color-interpolation-filters="sRGB">
<feFlood flood-opacity="0" result="BackgroundImageFix"/>
<feBlend mode="normal" in="SourceGraphic" in2="BackgroundImageFix" result="shape"/>
<feGaussianBlur stdDeviation="3.5" result="effect1_foregroundBlur_87_12130"/>
</filter>
<filter id="filter15_f_87_12130" x="156.85" y="174.15" width="22.1667" height="22.1667" filterUnits="userSpaceOnUse" color-interpolation-filters="sRGB">
<feFlood flood-opacity="0" result="BackgroundImageFix"/>
<feBlend mode="normal" in="SourceGraphic" in2="BackgroundImageFix" result="shape"/>
<feGaussianBlur stdDeviation="3.5" result="effect1_foregroundBlur_87_12130"/>
</filter>
<filter id="filter16_f_87_12130" x="109.483" y="138.217" width="22.1667" height="22.1667" filterUnits="userSpaceOnUse" color-interpolation-filters="sRGB">
<feFlood flood-opacity="0" result="BackgroundImageFix"/>
<feBlend mode="normal" in="SourceGraphic" in2="BackgroundImageFix" result="shape"/>
<feGaussianBlur stdDeviation="3.5" result="effect1_foregroundBlur_87_12130"/>
</filter>
<filter id="filter17_f_87_12130" x="191.967" y="219.883" width="22.1667" height="22.1667" filterUnits="userSpaceOnUse" color-interpolation-filters="sRGB">
<feFlood flood-opacity="0" result="BackgroundImageFix"/>
<feBlend mode="normal" in="SourceGraphic" in2="BackgroundImageFix" result="shape"/>
<feGaussianBlur stdDeviation="3.5" result="effect1_foregroundBlur_87_12130"/>
</filter>
<filter id="filter18_f_87_12130" x="154.4" y="268.883" width="22.1667" height="22.1667" filterUnits="userSpaceOnUse" color-interpolation-filters="sRGB">
<feFlood flood-opacity="0" result="BackgroundImageFix"/>
<feBlend mode="normal" in="SourceGraphic" in2="BackgroundImageFix" result="shape"/>
<feGaussianBlur stdDeviation="3.5" result="effect1_foregroundBlur_87_12130"/>
</filter>
<filter id="filter19_f_87_12130" x="62.1167" y="164.35" width="22.1667" height="22.1667" filterUnits="userSpaceOnUse" color-interpolation-filters="sRGB">
<feFlood flood-opacity="0" result="BackgroundImageFix"/>
<feBlend mode="normal" in="SourceGraphic" in2="BackgroundImageFix" result="shape"/>
<feGaussianBlur stdDeviation="3.5" result="effect1_foregroundBlur_87_12130"/>
</filter>
<filter id="filter20_f_87_12130" x="50.6835" y="219.883" width="22.1667" height="22.1667" filterUnits="userSpaceOnUse" color-interpolation-filters="sRGB">
<feFlood flood-opacity="0" result="BackgroundImageFix"/>
<feBlend mode="normal" in="SourceGraphic" in2="BackgroundImageFix" result="shape"/>
<feGaussianBlur stdDeviation="3.5" result="effect1_foregroundBlur_87_12130"/>
</filter>
<filter id="filter21_f_87_12130" x="202.583" y="164.35" width="22.1667" height="22.1667" filterUnits="userSpaceOnUse" color-interpolation-filters="sRGB">
<feFlood flood-opacity="0" result="BackgroundImageFix"/>
<feBlend mode="normal" in="SourceGraphic" in2="BackgroundImageFix" result="shape"/>
<feGaussianBlur stdDeviation="3.5" result="effect1_foregroundBlur_87_12130"/>
</filter>
<filter id="filter22_f_87_12130" x="160.933" y="127.6" width="22.1667" height="22.1667" filterUnits="userSpaceOnUse" color-interpolation-filters="sRGB">
<feFlood flood-opacity="0" result="BackgroundImageFix"/>
<feBlend mode="normal" in="SourceGraphic" in2="BackgroundImageFix" result="shape"/>
<feGaussianBlur stdDeviation="3.5" result="effect1_foregroundBlur_87_12130"/>
</filter>
<filter id="filter23_f_87_12130" x="62.1167" y="266.433" width="22.1667" height="22.1667" filterUnits="userSpaceOnUse" color-interpolation-filters="sRGB">
<feFlood flood-opacity="0" result="BackgroundImageFix"/>
<feBlend mode="normal" in="SourceGraphic" in2="BackgroundImageFix" result="shape"/>
<feGaussianBlur stdDeviation="3.5" result="effect1_foregroundBlur_87_12130"/>
</filter>
<radialGradient id="paint0_radial_87_12130" cx="0" cy="0" r="1" gradientUnits="userSpaceOnUse" gradientTransform="translate(1060.5 56.9182) rotate(90) scale(53.562 56.5)">
<stop stop-color="#E543E8"/>
<stop offset="1" stop-color="#00082F"/>
</radialGradient>
<radialGradient id="paint1_radial_87_12130" cx="0" cy="0" r="1" gradientUnits="userSpaceOnUse" gradientTransform="translate(136.083 214.225) rotate(90) scale(96.775 102.083)">
<stop stop-color="#FBD15B"/>
<stop offset="1" stop-color="#00082F"/>
</radialGradient>
</defs>
</svg>
